<?xml version="1.0" encoding="utf-8"?>
<!-- Generator: Adobe Illustrator 19.2.1, SVG Export Plug-In . SVG Version: 6.00 Build 0)  -->
<svg version="1.1" id="layer" xmlns="http://www.w3.org/2000/svg" xmlns:xlink="http://www.w3.org/1999/xlink" x="0px" y="0px"
	 viewBox="0 0 652 652" style="enable-background:new 0 0 652 652;" xml:space="preserve">
<style type="text/css">
	.st0{fill:#D10A11;}
</style>
<path d="M212.9,314.2c-4.3,5.6-10,7.7-15.4,7.7c-17.4,0-27.6-13-27.6-29.2c0-16.7,10.2-29.6,27.6-29.6c11.5,0,22.3,7.1,23.7,19.8
	h-11.8c-1.4-6.2-6.1-9.4-11.9-9.4c-11.1,0-15.3,9.4-15.3,19.3c0,9.4,4.2,18.8,15.3,18.8c8,0,12.7-4.3,13.4-12.1h-12.4v-9.2H222v30.3
	h-7.9L212.9,314.2z M232,320.6h39.7v-10.4h-27.3v-45.7H232V320.6z M190.7,334.2l-20.8,55h12.2l4.3-12.2H207l4.2,12.2h12.5l-20.6-55
	H190.7z M189.6,367.9l7.2-20.2h0.2l6.9,20.2H189.6z M233.6,379.3c-0.5-0.8-0.7-1.9-0.7-3h-10.4c0.1,2.7,0.7,4.9,1.8,6.7
	c1.1,1.8,2.5,3.2,4.2,4.3c1.7,1.1,3.7,1.8,5.9,2.3c2.2,0.5,4.5,0.7,6.8,0.7c2.3,0,4.5-0.2,6.7-0.6c2.2-0.4,4.1-1.2,5.8-2.3
	c1.7-1.1,3.1-2.5,4.1-4.3c1.1-1.8,1.6-4,1.6-6.6c0-1.8-0.4-3.4-1.1-4.7c-0.7-1.3-1.7-2.3-2.8-3.2c-1.2-0.8-2.5-1.5-4-2
	c-1.5-0.5-3.1-0.9-4.7-1.3c-1.5-0.4-3.1-0.7-4.5-1c-1.5-0.3-2.8-0.7-4-1c-1.2-0.4-2.1-0.9-2.8-1.5c-0.7-0.6-1.1-1.4-1.1-2.4
	c0-0.8,0.2-1.5,0.6-2c0.4-0.5,0.9-0.9,1.5-1.1c0.6-0.3,1.2-0.4,2-0.5c0.7-0.1,1.4-0.1,2-0.1c2,0,3.6,0.4,5.1,1.1
	c1.4,0.7,2.2,2.2,2.4,4.3h10.4c-0.2-2.5-0.8-4.5-1.9-6.1c-1.1-1.6-2.4-2.9-4-3.9c-1.6-1-3.4-1.7-5.4-2.1c-2-0.4-4.1-0.6-6.3-0.6
	c-2.2,0-4.3,0.2-6.3,0.6c-2.1,0.4-3.9,1.1-5.5,2c-1.6,1-3,2.2-4,3.9c-1,1.6-1.5,3.7-1.5,6.3c0,1.7,0.4,3.2,1.1,4.4
	c0.7,1.2,1.7,2.2,2.9,3c1.2,0.8,2.5,1.4,4,1.9c1.5,0.5,3.1,0.9,4.7,1.3c3.9,0.8,6.9,1.6,9.1,2.5c2.2,0.8,3.3,2.1,3.3,3.7
	c0,1-0.2,1.8-0.7,2.4c-0.5,0.6-1,1.2-1.7,1.5c-0.7,0.4-1.5,0.7-2.3,0.8c-0.9,0.2-1.7,0.3-2.4,0.3c-1.1,0-2.1-0.1-3.1-0.4
	c-1-0.3-1.9-0.7-2.7-1.2C234.7,380.8,234,380.1,233.6,379.3 M272,379.3c-0.5-0.8-0.7-1.9-0.7-3h-10.4c0.1,2.7,0.7,4.9,1.8,6.7
	c1.1,1.8,2.5,3.2,4.2,4.3c1.7,1.1,3.7,1.8,5.9,2.3c2.2,0.5,4.5,0.7,6.8,0.7c2.3,0,4.5-0.2,6.7-0.6c2.2-0.4,4.1-1.2,5.8-2.3
	c1.7-1.1,3.1-2.5,4.1-4.3c1.1-1.8,1.6-4,1.6-6.6c0-1.8-0.4-3.4-1.1-4.7c-0.7-1.3-1.7-2.3-2.8-3.2c-1.2-0.8-2.5-1.5-4-2
	c-1.5-0.5-3.1-0.9-4.7-1.3c-1.5-0.4-3.1-0.7-4.5-1c-1.5-0.3-2.8-0.7-4-1c-1.2-0.4-2.1-0.9-2.8-1.5c-0.7-0.6-1.1-1.4-1.1-2.4
	c0-0.8,0.2-1.5,0.6-2c0.4-0.5,0.9-0.9,1.5-1.1c0.6-0.3,1.2-0.4,2-0.5c0.7-0.1,1.4-0.1,2-0.1c2,0,3.6,0.4,5.1,1.1
	c1.4,0.7,2.2,2.2,2.4,4.3h10.4c-0.2-2.5-0.8-4.5-1.9-6.1c-1.1-1.6-2.4-2.9-4-3.9c-1.6-1-3.4-1.7-5.4-2.1c-2-0.4-4.1-0.6-6.3-0.6
	c-2.2,0-4.3,0.2-6.3,0.6c-2.1,0.4-3.9,1.1-5.5,2c-1.6,1-3,2.2-4,3.9c-1,1.6-1.5,3.7-1.5,6.3c0,1.7,0.4,3.2,1.1,4.4
	c0.7,1.2,1.7,2.2,2.9,3c1.2,0.8,2.5,1.4,4,1.9c1.5,0.5,3.1,0.9,4.7,1.3c3.9,0.8,6.9,1.6,9.1,2.5c2.2,0.8,3.3,2.1,3.3,3.7
	c0,1-0.2,1.8-0.7,2.4c-0.5,0.6-1,1.2-1.7,1.5c-0.7,0.4-1.5,0.7-2.3,0.8c-0.8,0.2-1.7,0.3-2.4,0.3c-1.1,0-2.1-0.1-3.1-0.4
	c-1-0.3-1.9-0.7-2.7-1.2C273.1,380.8,272.5,380.1,272,379.3 M312.9,379.6c-1.6-1.6-2.5-4.2-2.7-7.7h28.7c0.2-3.1-0.1-6-0.8-8.9
	c-0.7-2.8-1.9-5.3-3.5-7.5c-1.6-2.2-3.7-4-6.2-5.3c-2.5-1.3-5.5-2-8.9-2c-3,0-5.8,0.5-8.3,1.6c-2.5,1.1-4.6,2.6-6.4,4.4
	c-1.8,1.9-3.2,4.1-4.2,6.7c-1,2.6-1.5,5.3-1.5,8.3c0,3.1,0.5,5.9,1.4,8.5c0.9,2.6,2.3,4.8,4,6.6c1.7,1.9,3.9,3.3,6.4,4.3
	c2.5,1,5.3,1.5,8.5,1.5c4.5,0,8.4-1,11.5-3.1c3.2-2.1,5.6-5.5,7.1-10.2h-9.6c-0.4,1.2-1.3,2.4-2.9,3.5c-1.6,1.1-3.5,1.7-5.7,1.7
	C316.9,382,314.5,381.2,312.9,379.6 M325.2,358.7c1.3,1.4,2.2,3.5,2.7,6.3h-17.8c0.1-0.8,0.2-1.6,0.5-2.6c0.3-1,0.8-1.9,1.5-2.8
	c0.7-0.9,1.6-1.6,2.8-2.2c1.2-0.6,2.6-0.9,4.3-0.9C321.9,356.5,323.9,357.3,325.2,358.7 M351.6,379.3c-0.5-0.8-0.7-1.9-0.7-3h-10.4
	c0.1,2.7,0.7,4.9,1.8,6.7c1.1,1.8,2.5,3.2,4.2,4.3c1.7,1.1,3.7,1.8,5.9,2.3c2.2,0.5,4.5,0.7,6.8,0.7c2.3,0,4.5-0.2,6.7-0.6
	c2.2-0.4,4.1-1.2,5.8-2.3c1.7-1.1,3.1-2.5,4.1-4.3c1-1.8,1.6-4,1.6-6.6c0-1.8-0.4-3.4-1.1-4.7c-0.7-1.3-1.7-2.3-2.9-3.2
	c-1.2-0.8-2.5-1.5-4-2c-1.5-0.5-3.1-0.9-4.7-1.3c-1.5-0.4-3.1-0.7-4.5-1c-1.5-0.3-2.8-0.7-4-1c-1.2-0.4-2.1-0.9-2.8-1.5
	c-0.7-0.6-1.1-1.4-1.1-2.4c0-0.8,0.2-1.5,0.6-2c0.4-0.5,0.9-0.9,1.5-1.1s1.2-0.4,2-0.5c0.7-0.1,1.4-0.1,2-0.1c1.9,0,3.6,0.4,5.1,1.1
	c1.4,0.7,2.2,2.2,2.4,4.3h10.4c-0.2-2.5-0.8-4.5-1.9-6.1c-1.1-1.6-2.4-2.9-4-3.9c-1.6-1-3.4-1.7-5.4-2.1c-2-0.4-4.1-0.6-6.3-0.6
	c-2.2,0-4.3,0.2-6.3,0.6c-2.1,0.4-3.9,1.1-5.5,2c-1.6,1-3,2.2-4,3.9c-1,1.6-1.5,3.7-1.5,6.3c0,1.7,0.4,3.2,1.1,4.4
	c0.7,1.2,1.7,2.2,2.9,3c1.2,0.8,2.5,1.4,4,1.9c1.5,0.5,3.1,0.9,4.7,1.3c3.9,0.8,6.9,1.6,9.1,2.5c2.2,0.8,3.3,2.1,3.3,3.7
	c0,1-0.2,1.8-0.7,2.4c-0.5,0.6-1,1.2-1.7,1.5c-0.7,0.4-1.5,0.7-2.3,0.8c-0.8,0.2-1.7,0.3-2.4,0.3c-1.1,0-2.1-0.1-3.1-0.4
	c-1-0.3-1.9-0.7-2.7-1.2C352.8,380.8,352.1,380.1,351.6,379.3 M390.1,379.3c-0.5-0.8-0.7-1.9-0.7-3h-10.4c0.1,2.7,0.7,4.9,1.8,6.7
	c1.1,1.8,2.5,3.2,4.2,4.3c1.7,1.1,3.7,1.8,5.9,2.3c2.2,0.5,4.5,0.7,6.8,0.7c2.3,0,4.5-0.2,6.7-0.6c2.2-0.4,4.1-1.2,5.8-2.3
	c1.7-1.1,3.1-2.5,4.1-4.3c1.1-1.8,1.6-4,1.6-6.6c0-1.8-0.4-3.4-1.1-4.7c-0.7-1.3-1.7-2.3-2.9-3.2c-1.2-0.8-2.5-1.5-4-2
	c-1.5-0.5-3.1-0.9-4.7-1.3c-1.5-0.4-3.1-0.7-4.5-1c-1.5-0.3-2.8-0.7-4-1c-1.2-0.4-2.1-0.9-2.8-1.5c-0.7-0.6-1.1-1.4-1.1-2.4
	c0-0.8,0.2-1.5,0.6-2c0.4-0.5,0.9-0.9,1.5-1.1s1.2-0.4,2-0.5c0.7-0.1,1.4-0.1,2-0.1c2,0,3.6,0.4,5.1,1.1c1.4,0.7,2.2,2.2,2.4,4.3
	h10.4c-0.2-2.5-0.8-4.5-1.9-6.1c-1.1-1.6-2.4-2.9-4-3.9c-1.6-1-3.4-1.7-5.4-2.1c-2-0.4-4.1-0.6-6.3-0.6c-2.2,0-4.3,0.2-6.3,0.6
	c-2,0.4-3.9,1.1-5.5,2c-1.6,1-3,2.2-4,3.9c-1,1.6-1.5,3.7-1.5,6.3c0,1.7,0.4,3.2,1.1,4.4c0.7,1.2,1.7,2.2,2.9,3
	c1.2,0.8,2.5,1.4,4,1.9c1.5,0.5,3.1,0.9,4.7,1.3c3.9,0.8,6.9,1.6,9.1,2.5c2.2,0.8,3.3,2.1,3.3,3.7c0,1-0.2,1.8-0.7,2.4
	c-0.5,0.6-1,1.2-1.7,1.5c-0.7,0.4-1.5,0.7-2.3,0.8c-0.8,0.2-1.7,0.3-2.4,0.3c-1.1,0-2.1-0.1-3.1-0.4c-1-0.3-1.9-0.7-2.7-1.2
	C391.2,380.8,390.5,380.1,390.1,379.3 M419.6,349.4v39.8h10.9v-23.1c0-1.9,0.3-3.5,0.8-4.7c0.6-1.2,1.2-2.1,2-2.8
	c0.8-0.6,1.6-1.1,2.5-1.3c0.8-0.2,1.5-0.3,2-0.3c1.7,0,3.1,0.3,4,0.9c0.9,0.6,1.5,1.4,1.9,2.4c0.4,1,0.6,2,0.7,3.2
	c0.1,1.2,0.1,2.3,0.1,3.5v22.3h10.9V367c0-1.2,0.1-2.4,0.3-3.7c0.2-1.2,0.5-2.3,1.1-3.2c0.5-1,1.3-1.7,2.2-2.3
	c0.9-0.6,2.2-0.9,3.7-0.9c1.5,0,2.8,0.3,3.6,0.8c0.9,0.5,1.6,1.2,2,2.1c0.5,0.9,0.7,1.9,0.8,3.1c0.1,1.2,0.2,2.4,0.2,3.8v22.6h10.9
	v-26.6c0-2.6-0.4-4.8-1.1-6.6c-0.7-1.8-1.7-3.3-3-4.4c-1.3-1.1-2.8-1.9-4.6-2.5c-1.8-0.5-3.7-0.8-5.8-0.8c-2.8,0-5.2,0.7-7.2,2
	c-2,1.3-3.6,2.9-4.8,4.6c-1.1-2.5-2.7-4.2-4.7-5.2c-2.1-1-4.4-1.5-6.9-1.5c-2.6,0-4.9,0.6-7,1.7c-2,1.1-3.8,2.7-5.2,4.8h-0.2v-5.4
	H419.6z M497.8,379.6c-1.6-1.6-2.5-4.2-2.7-7.7h28.7c0.2-3.1,0-6-0.8-8.9c-0.7-2.8-1.9-5.3-3.5-7.5c-1.6-2.2-3.7-4-6.2-5.3
	c-2.5-1.3-5.5-2-8.9-2c-3,0-5.8,0.5-8.3,1.6c-2.5,1.1-4.6,2.6-6.4,4.4c-1.8,1.9-3.2,4.1-4.2,6.7c-1,2.6-1.5,5.3-1.5,8.3
	c0,3.1,0.5,5.9,1.4,8.5c1,2.6,2.3,4.8,4,6.6c1.7,1.9,3.9,3.3,6.4,4.3c2.5,1,5.3,1.5,8.5,1.5c4.5,0,8.4-1,11.6-3.1
	c3.2-2.1,5.5-5.5,7.1-10.2h-9.6c-0.4,1.2-1.3,2.4-2.9,3.5c-1.6,1.1-3.5,1.7-5.7,1.7C501.8,382,499.4,381.2,497.8,379.6 M510.1,358.7
	c1.3,1.4,2.2,3.5,2.7,6.3h-17.8c0.1-0.8,0.2-1.6,0.5-2.6c0.3-1,0.8-1.9,1.5-2.8c0.7-0.9,1.6-1.6,2.8-2.2c1.1-0.6,2.6-0.9,4.3-0.9
	C506.8,356.5,508.8,357.3,510.1,358.7 M527.4,349.4v39.8h10.9v-20.9c0-4.1,0.7-7,2-8.7c1.3-1.8,3.5-2.7,6.5-2.7
	c2.6,0,4.4,0.8,5.5,2.4c1,1.6,1.5,4.1,1.5,7.4v22.5h10.9v-24.5c0-2.5-0.2-4.7-0.7-6.7c-0.4-2-1.2-3.7-2.3-5.2
	c-1.1-1.4-2.5-2.5-4.4-3.3c-1.9-0.8-4.3-1.2-7.2-1.2c-2.3,0-4.6,0.5-6.8,1.6c-2.2,1.1-4,2.7-5.4,5h-0.2v-5.5H527.4z M583.9,349.4
	v-11.9H573v11.9h-6.6v7.3h6.6v23.5c0,2,0.3,3.6,1,4.8c0.7,1.2,1.6,2.2,2.7,2.8c1.2,0.7,2.5,1.1,4,1.3c1.5,0.2,3.1,0.3,4.8,0.3
	c1.1,0,2.2,0,3.3-0.1c1.1-0.1,2.2-0.2,3.1-0.3v-8.5c-0.5,0.1-1.1,0.2-1.6,0.2c-0.6,0.1-1.2,0.1-1.8,0.1c-1.8,0-3.1-0.3-3.7-0.9
	c-0.6-0.6-0.9-1.9-0.9-3.7v-19.7h8v-7.3H583.9z M616.6,357.7c5.7,0,10.2-4.6,10.2-10.2c0-5.6-4.4-10.1-10.1-10.1
	s-10.2,4.6-10.2,10.2C606.4,353.2,610.9,357.7,616.6,357.7 M616.6,338.5c5.1,0,9,4,9,9c0,5-3.9,9.1-9,9.1c-5.1,0-9-4-9-9
	C607.6,342.6,611.5,338.5,616.6,338.5 M619.1,348.8c1.4-0.5,2.3-1.6,2.3-3.4c0-2.2-1.7-3.6-4.2-3.6h-4.8v10.8h2.4v-3.5h1.9l2.3,3.5
	h2.8L619.1,348.8 M617.1,344c1.2,0,1.9,0.5,1.9,1.6c0,0.9-0.6,1.6-1.9,1.6h-2.4V344H617.1"/>
<polygon class="st0" points="106.1,350.6 104.4,352.1 80.3,323.5 82,322 "/>
<polygon class="st0" points="77.9,318.9 76.1,320.2 43.1,273.9 44.9,272.6 "/>
<rect x="52.2" y="298" transform="matrix(0.12 -0.9928 0.9928 0.12 -270.3495 334.1327)" class="st0" width="2.3" height="43.2"/>
<rect x="77.3" y="288.3" transform="matrix(0.9935 -0.114 0.114 0.9935 -34.3605 10.9334)" class="st0" width="2.3" height="35"/>
<rect x="73.1" y="301.7" transform="matrix(0.6928 -0.7211 0.7211 0.6928 -187.6638 165.0529)" class="st0" width="53.6" height="2.3"/>
<polygon class="st0" points="41.9,361.5 40.3,359.8 78.9,322.7 80.5,324.4 "/>
<rect x="81.9" y="316.1" transform="matrix(0.9659 -0.2588 0.2588 0.9659 -78.6576 36.9793)" class="st0" width="38.4" height="2.3"/>
<polygon class="st0" points="139.1,342 138.4,344.1 80.3,324.6 81,322.5 "/>
<rect x="89.1" y="325.7" transform="matrix(0.9561 -0.2931 0.2931 0.9561 -100.1173 42.0516)" class="st0" width="2.3" height="58.9"/>
<path class="st0" d="M132.3,344.8c-0.3-5.2,3.6-9.6,8.8-9.9c5.2-0.3,9.6,3.6,9.9,8.8c0.3,5.2-3.6,9.6-8.8,9.9
	C137.1,353.9,132.6,350,132.3,344.8 M67.7,286.7c0.3,4.6,4.3,8.1,8.9,7.8c4.6-0.3,8.1-4.3,7.8-8.9c-0.3-4.6-4.3-8.1-8.9-7.8
	C70.9,278.1,67.4,282.1,67.7,286.7 M113.3,281.4c0.2,3.8,3.5,6.7,7.3,6.5c3.8-0.2,6.7-3.5,6.5-7.3c-0.2-3.8-3.5-6.7-7.3-6.5
	C116,274.4,113.1,277.6,113.3,281.4 M112.3,312.8c0.3,4.6,4.3,8.1,8.9,7.8c4.6-0.3,8.1-4.3,7.8-8.9c-0.3-4.6-4.3-8.1-8.9-7.8
	C115.5,304.2,112,308.2,112.3,312.8 M32,361.9c0.3,4.6,4.3,8.1,8.9,7.8c4.6-0.3,8.1-4.3,7.8-8.9c-0.3-4.6-4.3-8.1-8.9-7.8
	C35.2,353.4,31.7,357.3,32,361.9 M26.8,317.4c0.2,2.7,2.5,4.8,5.2,4.6c2.7-0.2,4.8-2.5,4.6-5.2c-0.2-2.7-2.5-4.8-5.2-4.6
	C28.7,312.3,26.6,314.6,26.8,317.4 M51.5,271.6c-0.3-4.6-4.3-8.1-8.9-7.8c-4.6,0.3-8.1,4.3-7.8,8.9c0.3,4.6,4.3,8.1,8.9,7.8
	C48.3,280.2,51.8,276.3,51.5,271.6 M105.4,382.4c-0.2-3.5-3.3-6.2-6.8-6c-3.5,0.2-6.2,3.3-6,6.8c0.2,3.5,3.3,6.2,6.8,6
	C102.9,389,105.6,385.9,105.4,382.4 M101.4,353c0.2,2.7,2.5,4.8,5.2,4.6c2.7-0.2,4.8-2.5,4.6-5.2c-0.2-2.7-2.5-4.8-5.2-4.6
	C103.3,347.9,101.3,350.3,101.4,353 M70.9,323.4c0.3,5.2,4.8,9.1,9.9,8.8c5.2-0.3,9.1-4.8,8.8-9.9c-0.3-5.2-4.8-9.1-9.9-8.8
	C74.5,313.8,70.6,318.3,70.9,323.4"/>
</svg>
