<svg width="70" height="70" fill="none" xmlns="http://www.w3.org/2000/svg"><path d="M48.239 24.728c-.235-17.602-18.08-15.032-20.985-14.496a.354.354 0 0 0-.272.458l3.78 11.53c.174.53.73.837 1.27.7 9.007-2.272 14.646 1.073 15.929 1.956a.177.177 0 0 0 .278-.148z" fill="#BDBCBC"/><path d="M48.752 24.728C48.986 7.126 66.83 9.696 69.736 10.232c.211.039.34.255.214.636l-3.883 11.847c-.06.18-.436.381-.8.285-9.186-2.428-14.94.983-16.237 1.876a.177.177 0 0 1-.279-.148z" fill="#E65000"/><path d="M50.49 14.647C54.62 3.701 66.46 4.089 68.903 4.29c.228.02.377.247.306.465L68 8.446a.177.177 0 0 1-.189.121C57.3 7.401 52.558 12.223 50.801 14.81c-.117.173-.385.034-.311-.162z" fill="#69B3E6"/><path d="M67.865.466l-.727 2.217a.178.178 0 0 1-.167.122c-8.382.085-12.865 4.486-14.75 7.01-.129.172-.396.008-.3-.185C53.536 6.377 57.894.11 67.523 0a.355.355 0 0 1 .342.466z" fill="#FABD34"/><path d="M7.568 70C2.6 70 0 65.951 0 61.952c0-3.975 2.6-8 7.568-8 3.763 0 5.921 2.33 6.011 2.43a1.253 1.253 0 0 1-1.85 1.69c-.072-.078-1.553-1.614-4.16-1.614-3.479 0-5.064 2.848-5.064 5.494 0 2.67 1.585 5.543 5.063 5.543 2.615 0 4.132-1.629 4.146-1.645a1.253 1.253 0 0 1 1.875 1.661c-.09.102-2.249 2.489-6.02 2.489zm50.112 0c-4.97 0-7.57-4.049-7.57-8.048 0-3.975 2.6-8 7.57-8 3.762 0 5.92 2.33 6.01 2.43a1.252 1.252 0 0 1-1.85 1.69c-.072-.078-1.553-1.614-4.16-1.614-3.48 0-5.064 2.848-5.064 5.494 0 2.67 1.584 5.543 5.063 5.543 2.615 0 4.131-1.629 4.146-1.645a1.253 1.253 0 0 1 1.875 1.66c-.09.103-2.25 2.49-6.02 2.49zM24.748 50.553a1.252 1.252 0 0 1-.715-2.282c2.169-1.504 2.353-4.322 2.331-5.464V29.852a1.253 1.253 0 0 1 2.505 0v12.87c.03 1.584-.245 5.414-3.408 7.607a1.243 1.243 0 0 1-.712.224zm33.006-5.905c-4.969 0-7.569-4.048-7.569-8.048 0-3.975 2.6-8 7.569-8 3.763 0 5.92 2.33 6.011 2.43a1.252 1.252 0 0 1-1.849 1.69c-.075-.08-1.556-1.615-4.162-1.615-3.478 0-5.063 2.849-5.063 5.495 0 2.67 1.585 5.543 5.063 5.543 2.61 0 4.091-1.586 4.153-1.653a1.257 1.257 0 0 1 1.765-.088c.512.46.56 1.243.103 1.758-.09.1-2.25 2.488-6.021 2.488zM20.193 28.596c-.692 0-1.253.56-1.253 1.252v9.112a3.199 3.199 0 0 1-3.195 3.195h-.094a3.199 3.199 0 0 1-3.194-3.195v-9.112a1.252 1.252 0 1 0-2.506 0v9.112a3.199 3.199 0 0 1-3.195 3.195h-.093a3.198 3.198 0 0 1-3.195-3.195v-9.112a1.253 1.253 0 0 0-2.506 0v9.112c0 3.143 2.557 5.7 5.7 5.7h.094a5.69 5.69 0 0 0 4.448-2.144 5.69 5.69 0 0 0 4.447 2.145h.094c3.143 0 5.7-2.558 5.7-5.7v-9.113c0-.692-.56-1.252-1.252-1.252zm3.106 25.342c-1.56 0-2.808.458-3.77 1.161v-5.8a1.251 1.251 0 1 0-2.5 0v17.009c0 .202.048.4.142.579.066.126 1.662 3.079 6.128 3.079 2.31 0 4.27-.887 5.667-2.565 1.218-1.462 1.889-3.404 1.889-5.47 0-1.863-.61-3.746-1.674-5.167-.964-1.29-2.767-2.826-5.882-2.826zm0 13.526c-1.584 0-2.606-.527-3.18-.964a1.517 1.517 0 0 1-.59-1.213V59.97c0-1.152.922-3.53 3.77-3.53 3.998 0 5.055 3.591 5.055 5.49 0 2.665-1.583 5.534-5.055 5.534zm16.75-38.856c-3.105 0-4.853 1.52-5.77 2.796-1.364 1.893-1.568 4.068-1.568 5.196 0 2.066.671 4.01 1.89 5.471 1.397 1.677 3.356 2.565 5.666 2.565 3.766 0 5.922-2.385 6.012-2.485a1.25 1.25 0 0 0-1.872-1.66c-.014.017-1.53 1.643-4.14 1.643-2.92 0-4.504-2.03-4.934-4.26H45.8c.691 0 1.25-.56 1.25-1.25 0-3.99-2.164-8.016-7-8.016zm-4.754 6.764c.579-4.041 4.015-4.262 4.754-4.262 3.211 0 4.136 2.582 4.4 4.262h-9.154zm11.739 21.654c-.066-.126-1.662-3.078-6.128-3.078-4.96 0-7.556 4.02-7.556 7.992 0 2.066.671 4.008 1.89 5.47 1.398 1.678 3.356 2.565 5.666 2.565l.06-.003c1.533-.012 2.764-.469 3.713-1.165a1.25 1.25 0 0 0 2.497-.082V57.606c0-.202-.049-.401-.142-.58zm-2.36 6.917c0 1.151-.92 3.53-3.768 3.53-3.998 0-5.054-3.59-5.054-5.49 0-2.665 1.581-5.534 5.054-5.534 1.584 0 2.606.527 3.18.964.377.286.589.74.589 1.213v5.317z" fill="#009FE3"/></svg>