<?xml version="1.0" encoding="UTF-8"?>
<svg id="Layer_2" data-name="Layer 2" xmlns="http://www.w3.org/2000/svg" viewBox="0 0 1778 250.16">
  <defs>
    <style>
      .cls-1 {
        fill: #fff;
      }
    </style>
  </defs>
  <g id="Layer_1-2" data-name="Layer 1">
    <g>
      <path class="cls-1" d="m749.5.55c-11.4,1.6-21.7,6.9-29.2,15.1-7.7,8.4-10.5,24.1-6.3,35.2,4.5,12,12,18.5,33.5,29.5,6.7,3.4,13.9,7.7,16.2,9.7,11.2,9.5,11,24.5-.4,31.2-4.5,2.6-5.5,2.8-16.8,2.8-8.7,0-12.8-.4-15-1.5-3.2-1.6-3.2-1.5-5.5-18.3l-1.2-8.7h-15.8v37.9l5.1,1.6c11.5,3.4,20.8,4.7,32.4,4.8,18.9.1,31.1-4,41.4-13.8,8.5-8.1,11.6-15.2,11.5-27,0-7.8-.3-9.8-2.7-14.7-4.5-9.1-12.1-15.4-29.9-24.3-16.3-8.2-22.4-12.5-25.6-17.8-6-10-1.7-22,9.4-26.3,6.2-2.4,20.2-1.7,24.1,1.2,2.5,1.9,3,3.2,4.5,12.5.9,5.7,1.7,10.5,1.7,10.6.1.2,3.5.3,7.6.3h7.5V6.85l-7.2-2.1c-13.8-4.1-28.7-5.7-39.3-4.2Z"/>
      <path class="cls-1" d="m860.5.55c-11.4,1.6-21.7,6.9-29.2,15.1-7.7,8.4-10.5,24.1-6.3,35.2,4.5,12,12,18.5,33.5,29.5,6.7,3.4,13.9,7.7,16.2,9.7,11.2,9.5,11,24.5-.4,31.2-4.5,2.6-5.5,2.8-16.8,2.8-8.7,0-12.8-.4-15-1.5-3.2-1.6-3.2-1.5-5.5-18.3l-1.2-8.7h-15.8v37.9l5.1,1.6c11.5,3.4,20.8,4.7,32.4,4.8,18.9.1,31.1-4,41.4-13.8,8.5-8.1,11.6-15.2,11.5-27,0-7.8-.3-9.8-2.7-14.7-4.5-9.1-12.1-15.4-29.9-24.3-16.3-8.2-22.4-12.5-25.6-17.8-6-10-1.7-22,9.4-26.3,6.2-2.4,20.2-1.7,24.1,1.2,2.5,1.9,3,3.2,4.5,12.5.9,5.7,1.7,10.5,1.7,10.6.1.2,3.5.3,7.6.3h7.5V6.85l-7.2-2.1c-13.8-4.1-28.7-5.7-39.3-4.2Z"/>
      <path class="cls-1" d="m1555.2.55c-37.3,5.1-60.5,37.4-56.2,78.2,1.9,19,7.4,31.2,19.5,43.3,13.1,13.2,26.5,18.6,46.5,18.8,19.7.1,33.4-5.5,47-19.2,9.3-9.4,14.3-17.9,17.7-30.1,2.7-10.1,2.5-32-.5-42.5-3.6-12.5-8.6-20.9-17.7-30.1-12-12-24.3-17.5-42-18.7-4.4-.3-10.9-.1-14.3.3Zm22.4,16.4c9.1,4.2,16.1,13.5,20.4,27.1,3.2,9.9,4,35.5,1.5,47.6-3.2,15.9-11.6,28.7-22,33.5-6.6,3.1-17.9,3.3-24.3.4-9.2-4.2-17.8-16.4-21.8-31-2.6-9.3-2.6-38.7-.1-47.9,4.5-15.9,13.9-27.9,24.5-31.1,5.8-1.8,16.4-1.1,21.8,1.4Z"/>
      <path class="cls-1" d="m0,21.05v18.5h6.9c7.9,0,7.2,1.1,9.2-13,.7-4.7,1.7-9.1,2.2-9.8.7-.8,4.5-1.2,12.8-1.2h11.9v53.8c0,61.2.6,57.2-8.2,57.2-7.3,0-7.8.5-7.8,6.6v5.4l29.8-.2,29.7-.3.3-4.9c.4-5.9-.4-6.6-7.9-6.6-3,0-6-.5-6.7-1.2-.9-.9-1.2-14.6-1.2-55.5V15.55h11.4c8,0,11.7.4,12.4,1.3.6.7,1.8,5.7,2.7,11.2s1.9,10.3,2.4,10.8c.4.4,3.7.7,7.2.5l6.4-.3V3.05l-56.7-.3L0,2.55v18.5Z"/>
      <path class="cls-1" d="m120,7.95v5.3l3.8.7c2,.3,5.1.6,6.8.6,1.6,0,3.5.5,4.2,1.2,1.7,1.7,1.7,107.9,0,109.6-.7.7-3.7,1.2-6.7,1.2-7.5,0-8.3.7-7.9,6.6l.3,4.9,29.8.3,29.7.2v-5.4c0-6.1-.5-6.6-7.8-6.6-8.8-.1-8.2,4.3-8.2-56.2,0-40.2.3-53.7,1.2-54.6.7-.7,2.6-1.2,4.2-1.2,1.7,0,4.8-.3,6.9-.6l3.7-.7V2.55h-60v5.4Z"/>
      <path class="cls-1" d="m189.7,3.25c-.4.3-.7,2.8-.7,5.3,0,4.5.2,4.8,3.1,5.4,1.7.3,4.8.6,6.8.6s4.2.5,4.9,1.2c.9.9,1.2,14.3,1.2,54,0,51.5-.1,52.9-2,54.8-1.1,1.1-3.3,2-4.9,2s-4.3.3-6,.6c-3.1.7-3.2.8-2.9,5.8l.3,5.1,22.8.3,22.7.2v-5.4c0-6-.7-6.6-8.1-6.6s-6.9,2.3-6.8-54.1V22.05l19.2,58,19.3,58,7.4.3,7.5.3,19.7-58.3,19.7-58.3v50.7c.1,27.8-.2,51.3-.5,52.2-.4,1-1.8,1.6-3.9,1.6-1.8,0-4.7.3-6.4.6-3,.6-3.1.8-3.1,6v5.4l27.8-.2,27.7-.3.3-5.1.3-5.1-3.8-.7c-2.1-.3-5.2-.6-7-.6-2.2,0-3.6-.6-4.3-1.9-1.5-3-1.4-107.3.2-108.9.7-.7,2.9-1.2,4.9-1.2s5.1-.3,6.8-.6c3.1-.7,3.2-.8,2.9-5.8l-.3-5.1-26.2-.3-26.3-.2v2.7c0,2-23.3,74.3-29.7,92.3-.7,1.9-29.2-82.9-30.1-89.5l-.7-5-25.6-.3c-14-.1-25.8.1-26.2.5Z"/>
      <path class="cls-1" d="m363.4,3.95c-.3.7-.4,3.3-.2,5.7l.3,4.4,5.5.6c10,1,9-5,9,55.4s.8,55.6-8.9,56.5l-5.6.5v11h106v-37l-7.2-.3c-8.2-.3-7.2-1.7-9.4,13.3-1.8,12.5.5,11.5-25.4,11.5h-22.5v-50h12.4c13.6,0,14.1.2,15,6.2.3,2.1.8,5.4,1.2,7.3l.5,3.6,6.2-.3,6.2-.3v-46l-6.2-.3c-6.9-.3-6.2-1.1-7.9,9.8-.3,2.5-1.1,5.1-1.6,5.7-.7.9-4.7,1.3-13.4,1.3h-12.4V15.55h38.9l1.1,3.7c.5,2.1,1.6,6.5,2.3,9.8l1.2,6,7.3.3,7.2.3V2.55h-49.5c-41.3,0-49.7.2-50.1,1.4Z"/>
      <path class="cls-1" d="m479,7.95v5.4l6.3.7c3.4.4,6.8,1.2,7.5,1.7.9.8,1.2,12.9,1.2,54.4v53.3l-2.2,1.5c-1.4,1-4.4,1.6-7.5,1.6h-5.3v12l49.8-.2,49.7-.3v-40l-7.3-.3c-5.2-.2-7.4.1-7.7,1-.3.7-1.1,6.4-1.9,12.6-.7,6.2-1.9,11.9-2.6,12.7-1,1.2-4.6,1.5-19.6,1.5h-18.4v-54.4c0-42.3.3-54.6,1.3-55.4.6-.5,4-1.3,7.5-1.7l6.2-.7V2.55h-57v5.4Z"/>
      <path class="cls-1" d="m586.4,3.95c-.3.7-.4,3.3-.2,5.7l.3,4.4,5.5.6c10,1,9-5,9,55.4s.8,55.6-8.9,56.5l-5.6.5v11h106v-37l-7.2-.3c-8.2-.3-7.2-1.7-9.4,13.3-1.8,12.5.5,11.5-25.4,11.5h-22.5v-50h12.4c13.6,0,14.1.2,15,6.2.3,2.1.8,5.4,1.2,7.3l.5,3.6,6.2-.3,6.2-.3v-46l-6.2-.3c-6.9-.3-6.2-1.1-7.9,9.8-.3,2.5-1.1,5.1-1.6,5.7-.7.9-4.7,1.3-13.4,1.3h-12.4V15.55h38.9l1.1,3.7c.5,2.1,1.6,6.5,2.3,9.8l1.2,6,7.3.3,7.2.3V2.55h-49.5c-41.3,0-49.7.2-50.1,1.4Z"/>
      <path class="cls-1" d="m980,21.05v18.5h6.9c7.9,0,7.2,1.1,9.2-13,.7-4.7,1.7-9.1,2.2-9.8.7-.8,4.5-1.2,12.8-1.2h11.9v53.8c0,61.2.6,57.2-8.2,57.2-7.3,0-7.8.5-7.8,6.6v5.4l29.8-.2,29.7-.3.3-4.9c.4-5.9-.4-6.6-7.9-6.6-3,0-6-.5-6.7-1.2-.9-.9-1.2-14.6-1.2-55.5V15.55h11.4c8,0,11.7.4,12.4,1.3.6.7,1.8,5.7,2.7,11.2s1.9,10.3,2.4,10.8c.4.4,3.7.7,7.2.5l6.4-.3V3.05l-56.7-.3-56.8-.2v18.5Z"/>
      <path class="cls-1" d="m1098.2,7.75l.3,5.3,6,.3c3.2.2,6.5.8,7.1,1.3.9.7,1.3,12.7,1.7,44.2.4,35.9.7,44.3,2.1,49.7,5.3,20.6,22.3,31.4,49.6,31.3,13.5,0,22.6-1.9,31.2-6.5,7.1-3.8,11.2-8.2,15-16.5,5.1-10.8,5.7-17.7,5.8-60.9,0-44.6-.6-41.5,8.9-42.4l5.6-.5.3-5.3.3-5.2h-46.1v11h5.3c3.1,0,6.1.6,7.5,1.6l2.2,1.5v39.7c0,42.5-.4,46.8-5.1,55.2-1.5,2.8-4.2,5.5-7.3,7.5-4.8,2.9-5.3,3-17,3-9.9,0-12.7-.3-15.6-1.9-8-4.2-12.1-10.1-13.9-20.1-1.6-8.8-1.5-84.1.2-85.2.6-.4,3.9-1,7.2-1.3l6-.5.3-5.3.3-5.2h-58.2l.3,5.2Z"/>
      <path class="cls-1" d="m1239,7.95v5.3l3.8.7c2,.3,5.1.6,6.8.6,1.6,0,3.5.5,4.2,1.2,1.7,1.7,1.7,107.9,0,109.6-.7.7-3.7,1.2-6.7,1.2-7.5,0-8.3.7-7.9,6.6l.3,4.9,29.8.3,29.7.2v-5.4c0-6.1-.5-6.6-7.8-6.6-8.8-.1-8.2,4.3-8.2-56.2,0-40.2.3-53.7,1.2-54.6.7-.7,2.6-1.2,4.2-1.2,1.7,0,4.8-.3,6.9-.6l3.7-.7V2.55h-60v5.4Z"/>
      <path class="cls-1" d="m1306,21.05v18.5h6.9c7.9,0,7.2,1.1,9.2-13,.7-4.7,1.7-9.1,2.2-9.8.7-.8,4.5-1.2,12.8-1.2h11.9v53.8c0,61.2.6,57.2-8.2,57.2-7.3,0-7.8.5-7.8,6.6v5.4l29.8-.2,29.7-.3.3-4.9c.4-5.9-.4-6.6-7.9-6.6-3,0-6-.5-6.7-1.2-.9-.9-1.2-14.6-1.2-55.5V15.55h11.4c8,0,11.7.4,12.4,1.3.6.7,1.8,5.7,2.7,11.2s1.9,10.3,2.4,10.8c.4.4,3.7.7,7.2.5l6.4-.3V3.05l-56.7-.3-56.8-.2v18.5Z"/>
      <path class="cls-1" d="m1426,7.95v5.3l3.8.7c2,.3,5.1.6,6.8.6,1.6,0,3.5.5,4.2,1.2,1.7,1.7,1.7,107.9,0,109.6-.7.7-3.7,1.2-6.7,1.2-7.5,0-8.3.7-7.9,6.6l.3,4.9,29.8.3,29.7.2v-5.4c0-6.1-.5-6.6-7.8-6.6-8.8-.1-8.2,4.3-8.2-56.2,0-40.2.3-53.7,1.2-54.6.7-.7,2.6-1.2,4.3-1.2,1.6,0,4.7-.3,6.8-.6l3.7-.7V2.55h-60v5.4Z"/>
      <path class="cls-1" d="m1642.7,3.15c-.4.4-.7,2.8-.7,5.4q0,4.7,3.8,5.4c2,.3,5.1.6,6.8.6,1.6,0,3.5.5,4.2,1.2.9.9,1.2,14.2,1.2,53.8,0,60.3.8,55.3-9.6,57-3.3.6-6,1-6.2,1s-.2,2.4,0,5.2l.3,5.3,22.8.3,22.7.2v-10.9l-3.7-.6c-8-1.3-9.2-1.7-10.2-2.9-.8-.9-1-15.2-.9-46.3l.3-44.9,33.4,52.8,33.3,52.9,11.2-.3,11.1-.3.3-59.9c.2-65.9,0-63.6,6.2-63.6,1.5,0,4.2-.3,5.9-.6,3-.6,3.1-.8,3.1-6V2.55h-46v5.4c0,5.2.1,5.4,3.1,6,1.7.3,4.4.6,5.9.6s3.4.8,4.4,1.8c1.5,1.7,1.6,5.8,1.4,42.9l-.3,41.1-28.5-45.1c-19.2-30.3-28.7-46.3-29-48.7l-.5-3.5-22.6-.3c-12.4-.1-22.8.1-23.2.4Z"/>
      <path class="cls-1" d="m427.5,177.65l-7,14.4-13,2.1-13,2.2-15.9-2.2-16-2.1-6.5-13.8c-3.5-7.5-6.7-13.7-7-13.7s-3.5,6.3-7,13.9l-6.3,13.8-13.2,2.2-13.1,2.1-13-2c-7.1-1.1-13.6-2-14.3-2s-4.3-6.4-8-14.2l-6.7-14.1-6.7,14.1c-5.3,11.2-7.2,14.2-9,14.7-1.3.2-6.6,1.2-11.8,2-17.4,2.8-16.8,1.1-4.6,13.4l10.7,10.7-2.6,15.3c-1.4,8.5-2.4,15.5-2.3,15.7.2.1,6.2-3.1,13.3-7.1l13-7.4,11.5,6.1c6.3,3.4,12.1,6.5,12.8,7.1.7.5,1.5.7,1.8.4.5-.5-2.8-23.4-4.1-28.7-.2-.8,3.7-5.9,9-11.5l9.4-10,9.9,9.8,9.9,9.8-2.4,15c-1.4,8.3-2.2,15.3-2,15.5.3.3,6.2-2.7,13.3-6.7l12.8-7.3,5.5,3.1c3.1,1.6,9.1,4.9,13.5,7.3l7.8,4.3-.6-2.9c-.3-1.6-1.5-8.7-2.7-15.7l-2.1-12.8,9.8-10.2c5.5-5.6,10.4-10.3,10.9-10.5.6-.1,5.6,4.4,11.3,10l10.2,10.3-2.5,15.4c-1.4,8.5-2.4,15.5-2.2,15.7.1.2,6.1-3,13.2-7.1,12.8-7.2,13-7.3,15.9-5.8,1.7.9,7.5,4,12.9,7,5.5,3,10.1,5.2,10.4,5,.2-.3-.7-7.1-2.1-15.2l-2.5-14.8,10.1-10.9,10.2-10.9,10.9,10.9,10.9,10.9-2.4,15.1c-1.4,8.4-2.1,15.2-1.7,15.2s4.7-2.3,9.6-5.1c4.8-2.8,10.5-6,12.6-7l3.8-2,12.5,6.7c6.9,3.6,12.8,6.4,13.1,6,.3-.3-.5-7-1.7-15l-2.4-14.4,7.1-7.9c3.9-4.3,8.5-9.1,10.2-10.8l3.2-2.9,10.6,10.6,10.7,10.7-2.3,15.1c-1.3,8.3-2.2,15.3-2,15.4.2.2,6.2-2.9,13.2-6.9l12.8-7.2,13,7c7.2,3.8,13.2,6.8,13.4,6.6.1-.2-.8-6.7-2.1-14.4s-2.4-14.6-2.4-15.3,4.8-6.3,10.7-12.3c5.8-6,10.4-10.9,10.1-10.9-.2,0-6.9-.9-14.8-2s-14.4-2-14.5-2-3-6.1-6.5-13.5c-3.4-7.4-6.6-13.5-6.9-13.5-.4,0-3.6,6.2-7.2,13.8l-6.5,13.7-14,2.2-13.9,2.2-15-2.2-15-2.2-6.9-14-6.8-14-6.4,13.4c-3.5,7.3-6.4,13.7-6.4,14.1s-6.2,1.7-13.9,3c-13.6,2.2-14.1,2.2-26.2.6-21.2-2.8-18.2-.8-25.8-16.8l-6.6-14-7,14.3Z"/>
      <path class="cls-1" d="m861,188.75c0,2.4-.3,6-.6,8-.6,3.4-.4,3.8,1.5,3.8,1.5,0,2.5-1.1,3.6-3.7,2-4.6,2.9-5.3,8.3-5.3h4.2l-.2,21.2-.3,21.2-3.2,1c-2.2.6-3.3,1.5-3.3,2.7,0,1.7,1,1.9,12,1.9s12-.2,12-1.8c0-1.3-1.1-2.1-3.7-2.8l-3.8-.9-.3-21.3-.2-21.3,5.2.3c5.2.3,5.4.4,7.3,4.5,1.2,2.7,2.6,4.3,3.7,4.3,1.6,0,1.8-1,1.8-8s-.2-8-1.9-8c-1.1,0-2.3.4-2.6,1-.4.6-7.3,1-17.5,1s-17.1-.4-17.5-1c-.3-.6-1.5-1-2.6-1-1.6,0-1.9.7-1.9,4.2Z"/>
      <path class="cls-1" d="m969,188.75c0,2.4-.3,6-.6,8-.6,3.4-.4,3.8,1.5,3.8,1.5,0,2.5-1.1,3.6-3.7,2-4.6,2.9-5.3,8.3-5.3h4.2l-.2,21.2-.3,21.2-3.2,1c-2.2.6-3.3,1.5-3.3,2.7,0,1.7,1,1.9,12,1.9s12-.2,12-1.8c0-1.3-1.1-2.1-3.7-2.8l-3.8-.9-.3-21.3-.2-21.3,5.2.3c5.2.3,5.4.4,7.3,4.5,1.2,2.7,2.6,4.3,3.7,4.3,1.6,0,1.8-1,1.8-8s-.2-8-1.9-8c-1.1,0-2.3.4-2.6,1-.4.6-7.3,1-17.5,1s-17.1-.4-17.5-1c-.3-.6-1.5-1-2.6-1-1.6,0-1.9.7-1.9,4.2Z"/>
      <path class="cls-1" d="m1032.4,187.95c-9.2,4.3-14.9,14.2-14.8,26.1.1,15.2,11.2,26.5,25.9,26.5,14-.1,24-10.1,25.3-25.5,1.3-16.9-9.5-29.5-25.3-29.5-4.2,0-7.5.7-11.1,2.4Zm17.7,4.9c1.9,1.2,4.5,4.3,5.9,6.7,2.2,4,2.5,5.7,2.5,15s-.3,10.9-2.3,14.3c-2.9,4.5-6.8,6.7-12,6.7-5.7,0-10.2-3.4-13.6-10.4-5.7-11.3-3.3-27.7,4.6-32.6,4.5-2.7,10.6-2.6,14.9.3Z"/>
      <path class="cls-1" d="m1231,186.45c-5,1.6-8.7,4-12.7,8.4-5,5.4-6.7,10.3-6.7,18.8,0,11.8,6.8,21.8,17.3,25.4,5.4,1.8,15.6,1.9,23.1.1l5.5-1.3-.3-7.2c-.5-9.2.2-12.1,2.8-12.1,1.5,0,2-.7,2-2.5v-2.5h-21v2.5c0,2.1.5,2.5,2.8,2.5,4.1,0,5.2,1.7,5.2,8,0,7.2-1.7,9-8.6,9-7.5,0-12.2-3.2-15.9-10.5-2.6-5.1-3-7.1-2.9-13.6.1-8.9,2.7-14.9,8.4-18.7,3-2,4.4-2.3,10.2-2,7.6.4,10.9,2.6,12.9,8.5.7,2.3,1.6,3.3,2.7,3.1,1.4-.3,1.7-1.5,1.4-7.3-.2-3.9-.7-7.4-1.2-7.9-1.2-1.2-21.7-1.8-25-.7Z"/>
      <path class="cls-1" d="m1345.4,187.95c-9.2,4.3-14.9,14.2-14.8,26.1.1,15.2,11.2,26.5,25.9,26.5,14-.1,24-10.1,25.3-25.5,1.3-16.9-9.5-29.5-25.3-29.5-4.2,0-7.5.7-11.1,2.4Zm17.7,4.9c1.9,1.2,4.5,4.3,5.9,6.7,2.2,4,2.5,5.7,2.5,15s-.3,10.9-2.3,14.3c-2.9,4.5-6.8,6.7-12,6.7-5.7,0-10.2-3.4-13.6-10.4-5.7-11.3-3.3-27.7,4.6-32.6,4.5-2.7,10.6-2.6,14.9.3Z"/>
      <path class="cls-1" d="m1463.1,187.35c-5.3,2.6-7.6,6.5-7.6,12.6,0,6.9,2,9.7,10.8,15.3,4,2.5,8,5.5,8.9,6.7,2.4,2.9,2.2,7.8-.3,11-4.2,5.3-13.2,2-16.1-5.9-1.2-3.5-2.3-4.2-4.4-2.7-.7.5-.7,2.6,0,7.1,1,6.1,1.3,6.5,4.6,7.7,13.1,4.7,26.3-2.3,26.3-14,0-6.3-2.6-10.3-9.5-14.4-8.7-5.3-12.8-9.4-12.8-12.9,0-4.7,2.5-7.3,7.1-7.3s7.7,2.5,8.6,7c.3,1.7,1.1,3,1.7,3,2.7-.1,3.3-1.6,2.8-7.3-.4-5.1-.8-6-2.9-6.8-4-1.5-13.5-1.1-17.2.9Z"/>
      <path class="cls-1" d="m1565.3,187.55c-22.4,9-22.1,43.8.5,51.4,4.6,1.6,15.9,2,21.7.7,3.3-.7,5.8-4.8,7-11.4.6-3.3.5-3.7-1.4-3.7-1.2,0-2.6,1.1-3.5,2.9-2.7,5.1-7.2,8.1-12.2,8.1-12.1,0-18.7-8.2-18.8-23.5,0-6.7.4-8.8,2.5-12.5,3.5-6.3,7.9-9,14.8-9s11.4,2.5,13.1,7.4c.8,2.6,1.7,3.6,3.2,3.6,2,0,2.1-.4,1.4-7.2-.3-3.9-.8-7.4-1.1-7.6-.2-.2-5.3-.6-11.2-.8-9.2-.4-11.6-.1-16,1.6Z"/>
      <path class="cls-1" d="m1618.3,187.55c-22.4,9-22.1,43.8.5,51.4,4.6,1.6,15.9,2,21.7.7,3.3-.7,5.8-4.8,7-11.4.6-3.3.5-3.7-1.4-3.7-1.2,0-2.6,1.1-3.5,2.9-2.7,5.1-7.2,8.1-12.2,8.1-12.1,0-18.7-8.2-18.8-23.5,0-6.7.4-8.8,2.5-12.5,3.5-6.3,7.9-9,14.8-9s11.4,2.5,13.1,7.4c.8,2.6,1.7,3.6,3.2,3.6,2,0,2.1-.4,1.4-7.2-.3-3.9-.8-7.4-1.1-7.6-.2-.2-5.3-.6-11.2-.8-9.2-.4-11.6-.1-16,1.6Z"/>
      <path class="cls-1" d="m1710.1,187.35c-5.3,2.6-7.6,6.5-7.6,12.6,0,6.9,2,9.7,10.8,15.3,4,2.5,8,5.5,8.9,6.7,2.4,2.9,2.2,7.8-.3,11-4.2,5.3-13.2,2-16.1-5.9-1.2-3.5-2.3-4.2-4.4-2.7-.7.5-.7,2.6,0,7.1,1,6.1,1.3,6.5,4.6,7.7,13.1,4.7,26.3-2.3,26.3-14,0-6.3-2.6-10.3-9.5-14.4-8.7-5.3-12.8-9.4-12.8-12.9,0-4.7,2.5-7.3,7.1-7.3s7.7,2.5,8.6,7c.3,1.7,1.1,3,1.7,3,2.7-.1,3.3-1.6,2.8-7.3-.4-5.1-.8-6-2.9-6.8-4-1.5-13.5-1.1-17.2.9Z"/>
      <path class="cls-1" d="m1748.1,187.35c-5.3,2.6-7.6,6.5-7.6,12.6,0,6.9,2,9.7,10.8,15.3,4,2.5,8,5.5,8.9,6.7,2.4,2.9,2.2,7.8-.3,11-4.2,5.3-13.2,2-16.1-5.9-1.2-3.5-2.3-4.2-4.4-2.7-.7.5-.7,2.6,0,7.1,1,6.1,1.3,6.5,4.6,7.7,13.1,4.7,26.3-2.3,26.3-14,0-6.3-2.6-10.3-9.5-14.4-8.7-5.3-12.8-9.4-12.8-12.9,0-4.7,2.5-7.3,7.1-7.3s7.7,2.5,8.6,7c.3,1.7,1.1,3,1.7,3,2.7-.1,3.3-1.6,2.8-7.3-.4-5.1-.8-6-2.9-6.8-4-1.5-13.5-1.1-17.2.9Z"/>
      <path class="cls-1" d="m910,188.55c0,1.3.7,2,1.9,2,4.5,0,5.1,2.1,5.1,19.1s.8,21,5.7,26.2c5.1,5.2,16.8,6.4,24.4,2.4,3.2-1.7,5-3.7,6.9-7.2,2.3-4.6,2.5-6.3,3-22l.5-17,3.3-1c2.1-.6,3.2-1.5,3.2-2.7,0-1.6-1.1-1.8-10.5-1.8s-10.5.1-10.5,2c0,1.4.7,2,2.1,2,1.1,0,2.9.5,4,1,1.8,1,1.9,2.3,1.9,16.6,0,21.4-2,25.4-12.5,25.4s-12.8-4.2-13.3-24.1c-.5-16.1.2-18.9,4.3-18.9,1.8,0,2.5-.5,2.5-2,0-1.9-.7-2-11-2s-11,.1-11,2Z"/>
      <path class="cls-1" d="m1076,188.35c0,1.2,1.1,2.1,3.3,2.7l3.2,1v41.9l-3.2,1c-2.2.6-3.3,1.5-3.3,2.7,0,1.7,1,1.9,11.5,1.9s11.5-.2,11.5-1.9c0-1.2-1.1-2.1-3.2-2.7l-3.3-1-.3-8.3-.3-8.2,2.7.3c2.2.2,3.7,1.9,7.6,8.3,6.5,10.5,8.1,12.1,13.3,13.4,6.5,1.6,7.5,1.4,7.5-1.4,0-1.4-.6-2.5-1.3-2.5s-2.5-1.2-3.9-2.8c-2.6-2.7-11.8-16.5-11.8-17.7,0-.3,1.6-1.9,3.5-3.6,8.2-7.2,6.1-20.1-3.8-23.8-1.6-.6-8.9-1.1-16.3-1.1-12.2,0-13.4.2-13.4,1.8Zm26.5,5.7c2,1.9,2.5,3.4,2.5,7.5,0,4.4-.5,5.6-2.9,8.1-2.2,2.1-3.9,2.9-6.5,2.9h-3.6v-21h4c3,0,4.7.7,6.5,2.5Z"/>
      <path class="cls-1" d="m1124,188.35c0,1.2,1.1,2.1,3.3,2.7l3.2,1v41.9l-3.2,1c-2.2.6-3.3,1.5-3.3,2.7,0,1.7,1,1.9,11.5,1.9s11.5-.2,11.5-1.9c0-1.2-1.1-2.1-3.2-2.7l-3.3-1-.3-20.9c-.3-22.2-.2-22.5,4.6-22.5,1.5,0,2.2-.6,2.2-2,0-1.9-.7-2-11.5-2s-11.5.2-11.5,1.8Z"/>
      <path class="cls-1" d="m1152,188.55c0,1.3.7,2,2,2,1.1,0,2.9.9,4,2,1.9,1.9,2,3.3,2,20.1,0,9.9-.4,18.9-1,19.9-.5,1-2.1,2.1-3.5,2.4-1.6.4-2.5,1.3-2.5,2.6,0,1.9.7,2,10,2s10-.1,10-2c0-1.4-1-2.2-3.2-2.8l-3.3-.8-.2-16c-.2-12.7,0-15.6,1-14.4.6.9,7.4,9.5,15,19.3,9.4,12,14.5,17.7,15.8,17.7,1.8,0,1.9-.9,1.9-16.8,0-9.3.3-20.3.6-24.5.7-7.3.8-7.6,3.5-8.2,2-.5,2.9-1.3,2.9-2.6,0-1.7-.8-1.9-10-1.9s-10,.2-10,1.9c0,1.4,1,2.1,3.5,2.5,4.3.8,4.7,2.6,4.3,19.8l-.3,12.7-14.8-18.4-14.7-18.5h-6.5c-5.8,0-6.5.2-6.5,2Z"/>
      <path class="cls-1" d="m1286,188.35c0,1.2,1.1,2.1,3.3,2.7l3.2,1v41.9l-3.2,1c-2.2.6-3.3,1.5-3.3,2.7,0,1.7,1,1.9,11.5,1.9s11.5-.2,11.5-1.9c0-1.2-1.1-2.1-3.2-2.7l-3.3-1-.3-9.2-.3-9.3,6.3.3c6.1.3,6.2.4,7,3.5.6,2.3,1.4,3.3,2.8,3.3,1.9,0,2-.7,2-9.5s-.1-9.5-2-9.5c-1.3,0-2.2.9-2.6,2.5-.8,3.3-3.2,4.5-8.8,4.5h-4.6v-19.1l6.8.3,6.7.3,2,4.2c1.5,3.2,2.5,4.2,4,4,1.1-.1,1.9-.5,1.8-1-.2-.4-.3-3.4-.3-6.7v-6h-18.5c-17.1,0-18.5.1-18.5,1.8Z"/>
      <path class="cls-1" d="m1388,188.35c0,1.2,1.1,2.1,3.3,2.7l3.2,1v41.9l-3.2,1c-2.2.6-3.3,1.5-3.3,2.7,0,1.7,1,1.9,11.5,1.9s11.5-.2,11.5-1.9c0-1.2-1.1-2.1-3.2-2.7l-3.3-1-.3-8.3-.3-8.2,2.7.3c2.2.2,3.7,1.9,7.6,8.3,6.5,10.5,8.1,12.1,13.3,13.4,6.5,1.6,7.5,1.4,7.5-1.4,0-1.4-.6-2.5-1.3-2.5s-2.5-1.2-3.9-2.8c-2.6-2.7-11.8-16.5-11.8-17.7,0-.3,1.6-1.9,3.5-3.6,8.2-7.2,6.1-20.1-3.8-23.8-1.6-.6-8.9-1.1-16.3-1.1-12.2,0-13.4.2-13.4,1.8Zm26.5,5.7c2,1.9,2.5,3.4,2.5,7.5,0,4.4-.5,5.6-2.9,8.1-2.2,2.1-3.9,2.9-6.5,2.9h-3.6v-21h4c3,0,4.7.7,6.5,2.5Z"/>
      <path class="cls-1" d="m1490,188.55c0,1.3.7,2,1.9,2,4.5,0,5.1,2.1,5.1,19.1s.8,21,5.7,26.2c5.1,5.2,16.8,6.4,24.4,2.4,3.2-1.7,5-3.7,6.9-7.2,2.3-4.6,2.5-6.3,3-22l.5-17,3.3-1c2.1-.6,3.2-1.5,3.2-2.7,0-1.6-1.1-1.8-10.5-1.8s-10.5.1-10.5,2c0,1.4.7,2,2.1,2,1.1,0,2.9.5,4,1,1.8,1,1.9,2.3,1.9,16.6,0,21.4-2,25.4-12.5,25.4s-12.8-4.2-13.3-24.1c-.5-16.1.2-18.9,4.3-18.9,1.8,0,2.5-.5,2.5-2,0-1.9-.7-2-11-2s-11,.1-11,2Z"/>
      <path class="cls-1" d="m1655,188.55c0,1.3.7,2,1.9,2,3.8,0,4.2,2,3.9,23.1l-.3,20.4-3.7.9c-2.7.7-3.8,1.5-3.8,2.8,0,1.7,1.3,1.8,19.5,1.8h19.4l1.1-3.8c.5-2,1.3-5.4,1.6-7.5.6-3.2.4-3.7-1.2-3.7-1.2,0-2.7,1.4-3.9,3.6-2.9,5.4-5.3,6.5-12.7,6.2l-6.3-.3-.3-9.8-.3-9.7h4.8c5.8,0,6.9.7,7.8,4.3.5,1.7,1.4,2.7,2.6,2.7,1.7,0,1.9-.8,1.9-9.5s-.2-9.5-1.9-9.5c-1.2,0-2.1,1-2.6,2.7-.9,3.6-2,4.3-7.7,4.3h-4.8v-18.1l6.8.3,6.7.3,2,4.2c1.2,2.7,2.6,4.3,3.7,4.3,1.6,0,1.8-1,1.8-7v-7h-18c-17.3,0-18,.1-18,2Z"/>
      <path class="cls-1" d="m648.4,209.95c-.3.7-.4,3.5-.2,6.2l.3,4.9h8.3c4.5,0,37.2-.2,72.7-.3l64.5-.2v-12h-72.5c-60.7,0-72.6.2-73.1,1.4Z"/>
      <path class="cls-1" d="m59,216.55v6h154v-12H59v6Z"/>
    </g>
  </g>
</svg>