<?xml version="1.0" encoding="UTF-8"?>
<svg id="Layer_2" data-name="Layer 2" xmlns="http://www.w3.org/2000/svg" viewBox="0 0 249.63 904.87">
  <defs>
    <style>
      .cls-1 {
        fill: #fff;
      }
    </style>
  </defs>
  <g id="Layer_1-2" data-name="Layer 1">
    <path class="cls-1" d="m118.32,1.97c-.3,1.3-3.8,22.6-7.6,47.4-3.9,24.7-30.3,187.2-58.6,361C23.72,584.17.32,727.97.02,729.87c-.3,2.1,3.7,27.2,10.1,63.5,15.1,85.4,18.4,101.9,21,105.8,2.7,3.9,6,5.7,10.8,5.7,5.6,0,9.7-4.3,16.6-17.3,3.3-6.2,20.9-37.5,39.2-69.7s34.1-60.3,35.1-62.5,1.9-5.6,1.9-7.6,22.3-143.5,49.6-314.5C251.62,10.67,250.52,17.77,249.32,17.37c-.6-.2-28.8-4-62.6-8.5C152.92,4.47,123.82.47,122.02.17c-2.8-.4-3.3-.2-3.7,1.8Zm52.4,99.9c24.3,3.3,44.4,6.1,44.6,6.3.3.3-2.4,17.8-2.8,18.3-.2.1-20.6-2.4-45.3-5.7-24.8-3.2-45.4-5.9-45.8-5.9-.5,0-.6-1.2-.3-2.8.3-1.5,1.1-5.7,1.7-9.5.7-4,1.6-6.7,2.3-6.7s21.2,2.7,45.6,6Zm-5.6,30.9c24.6,3.3,45,6.2,45.2,6.4.3.3-2.4,18.9-2.9,19.3-.1.1-20.8-2.6-46-5.9l-45.9-6.1.6-3c.3-1.7,1-6.1,1.7-9.9.6-3.7,1.4-6.7,1.8-6.7.3,0,20.8,2.7,45.5,5.9Zm-4.2,32c24.1,3.1,44,6,44.3,6.2.5.5-2.3,18.1-3,18.8-.5.4-90.6-11.7-91.2-12.3-.5-.5,1.3-13.2,2.3-16.9.3-.9,1.3-1.7,2.2-1.7s21.4,2.7,45.4,5.9Zm-43.7,28.2c5.3.8,7.5,1.6,7.5,2.6,0,1.4-81.5,502.5-82.6,507.4-.5,2.5-1.2,2.8-9.2,4.2-4.7.9-8.7,1.5-8.8,1.4-.5-.6,84.2-516.7,84.8-516.7.4,0,4.1.5,8.3,1.1Zm40,5.5c6.6.9,12.1,1.7,12.3,1.9.4.4-82.4,508.4-82.9,509-.2.2-3.1-.3-6.4-1-3.3-.8-9.8-1.9-14.4-2.4-4.6-.6-8.6-1.3-8.9-1.6-.3-.2,18.1-114.8,40.9-254.5l41.4-254,3,.5c1.7.3,8.4,1.2,15,2.1Zm39.6,5.3l3.5.6-41.2,258.9c-22.7,142.3-41.4,259-41.6,259.2-.6.6-16.8-8-16.8-8.9,0-.7,74.1-456.3,82.2-504.9l1.1-6.7,4.6.6c2.5.3,6.2.8,8.2,1.2Zm-118.6,530c8.8,2.3,25.1,9.9,27.8,12.9,1.8,1.9,1.1,3.2-19.4,39.3-11.6,20.6-21.5,37.7-21.9,38.2-.3.4-2.8-.2-5.5-1.4-4.7-2.1-12.3-2.3-16.5-.5-1.4.6-2.7-5.7-9.3-43-4.3-24.1-7.4-44.1-7-44.5s4-1.5,7.8-2.3c10.2-2.2,33.3-1.6,44,1.3Z"/>
  </g>
</svg>