<?xml version="1.0" standalone="no"?>
<!DOCTYPE svg PUBLIC "-//W3C//DTD SVG 20010904//EN"
 "http://www.w3.org/TR/2001/REC-SVG-20010904/DTD/svg10.dtd">
<svg version="1.0" xmlns="http://www.w3.org/2000/svg"
 width="2044.000000pt" height="905.000000pt" viewBox="0 0 2044.000000 905.000000"
 preserveAspectRatio="xMidYMid meet">

<g transform="translate(0.000000,905.000000) scale(0.100000,-0.100000)"
fill="#ffffff" stroke="none">
<path d="M1196 9029 c-3 -13 -38 -226 -76 -474 -39 -247 -303 -1872 -586
-3610 -284 -1738 -518 -3176 -521 -3195 -3 -21 37 -272 101 -635 151 -854 184
-1019 210 -1058 27 -39 60 -57 108 -57 56 0 97 43 166 173 33 62 209 375 392
697 183 322 341 603 351 625 10 22 19 56 19 76 0 19 223 1435 496 3145 673
4226 662 4155 650 4159 -6 2 -288 40 -626 85 -338 44 -629 84 -647 87 -28 4
-33 2 -37 -18z m524 -999 c243 -33 444 -61 446 -63 3 -3 -24 -178 -28 -183 -2
-1 -206 24 -453 57 -248 32 -454 59 -458 59 -5 0 -6 12 -3 28 3 15 11 57 17
95 7 40 16 67 23 67 7 0 212 -27 456 -60z m-56 -309 c246 -33 450 -62 452 -64
3 -3 -24 -189 -29 -193 -1 -1 -208 26 -460 59 l-459 61 6 30 c3 17 10 61 17
99 6 37 14 67 18 67 3 0 208 -27 455 -59z m-42 -320 c241 -31 440 -60 443 -62
5 -5 -23 -181 -30 -188 -5 -4 -906 117 -912 123 -5 5 13 132 23 169 3 9 13 17
22 17 9 0 214 -27 454 -59z m-437 -282 c53 -8 75 -16 75 -26 0 -14 -815 -5025
-826 -5074 -5 -25 -12 -28 -92 -42 -47 -9 -87 -15 -88 -14 -5 6 842 5167 848
5167 4 0 41 -5 83 -11z m400 -55 c66 -9 121 -17 123 -19 4 -4 -824 -5084 -829
-5090 -2 -2 -31 3 -64 10 -33 8 -98 19 -144 24 -46 6 -86 13 -89 16 -3 2 181
1148 409 2545 l414 2540 30 -5 c17 -3 84 -12 150 -21z m396 -53 l35 -6 -412
-2589 c-227 -1423 -414 -2590 -416 -2592 -6 -6 -168 80 -168 89 0 7 741 4563
822 5049 l11 67 46 -6 c25 -3 62 -8 82 -12z m-1186 -5300 c88 -23 251 -99 278
-129 18 -19 11 -32 -194 -393 -116 -206 -215 -377 -219 -382 -3 -4 -28 2 -55
14 -47 21 -123 23 -165 5 -14 -6 -27 57 -93 430 -43 241 -74 441 -70 445 4 4
40 15 78 23 102 22 333 16 440 -13z"/>
<path d="M10155 5970 c-114 -16 -217 -69 -292 -151 -77 -84 -105 -241 -63
-352 45 -120 120 -185 335 -295 67 -34 139 -77 162 -97 112 -95 110 -245 -4
-312 -45 -26 -55 -28 -168 -28 -87 0 -128 4 -150 15 -32 16 -32 15 -55 183
l-12 87 -79 0 -79 0 0 -190 0 -189 51 -16 c115 -34 208 -47 324 -48 189 -1
311 40 414 138 85 81 116 152 115 270 0 78 -3 98 -27 147 -45 91 -121 154
-299 243 -163 82 -224 125 -256 178 -60 100 -17 220 94 263 62 24 202 17 241
-12 25 -19 30 -32 45 -125 9 -57 17 -105 17 -106 1 -2 35 -3 76 -3 l75 0 0
169 0 168 -72 21 c-138 41 -287 57 -393 42z"/>
<path d="M11265 5970 c-114 -16 -217 -69 -292 -151 -77 -84 -105 -241 -63
-352 45 -120 120 -185 335 -295 67 -34 139 -77 162 -97 112 -95 110 -245 -4
-312 -45 -26 -55 -28 -168 -28 -87 0 -128 4 -150 15 -32 16 -32 15 -55 183
l-12 87 -79 0 -79 0 0 -190 0 -189 51 -16 c115 -34 208 -47 324 -48 189 -1
311 40 414 138 85 81 116 152 115 270 0 78 -3 98 -27 147 -45 91 -121 154
-299 243 -163 82 -224 125 -256 178 -60 100 -17 220 94 263 62 24 202 17 241
-12 25 -19 30 -32 45 -125 9 -57 17 -105 17 -106 1 -2 35 -3 76 -3 l75 0 0
169 0 168 -72 21 c-138 41 -287 57 -393 42z"/>
<path d="M18212 5970 c-373 -51 -605 -374 -562 -782 19 -190 74 -312 195 -433
131 -132 265 -186 465 -188 197 -1 334 55 470 192 93 94 143 179 177 301 27
101 25 320 -5 425 -36 125 -86 209 -177 301 -120 120 -243 175 -420 187 -44 3
-109 1 -143 -3z m224 -164 c91 -42 161 -135 204 -271 32 -99 40 -355 15 -476
-32 -159 -116 -287 -220 -335 -66 -31 -179 -33 -243 -4 -92 42 -178 164 -218
310 -26 93 -26 387 -1 479 45 159 139 279 245 311 58 18 164 11 218 -14z"/>
<path d="M2660 5765 l0 -185 69 0 c79 0 72 -11 92 130 7 47 17 91 22 98 7 8
45 12 128 12 l119 0 0 -538 c0 -612 6 -572 -82 -572 -73 0 -78 -5 -78 -66 l0
-54 298 2 297 3 3 49 c4 59 -4 66 -79 66 -30 0 -60 5 -67 12 -9 9 -12 146 -12
555 l0 543 114 0 c80 0 117 -4 124 -13 6 -7 18 -57 27 -112 9 -55 19 -103 24
-108 4 -4 37 -7 72 -5 l64 3 0 180 0 180 -567 3 -568 2 0 -185z"/>
<path d="M3860 5896 l0 -53 38 -7 c20 -3 51 -6 68 -6 16 0 35 -5 42 -12 17
-17 17 -1079 0 -1096 -7 -7 -37 -12 -67 -12 -75 0 -83 -7 -79 -66 l3 -49 298
-3 297 -2 0 54 c0 61 -5 66 -78 66 -88 1 -82 -43 -82 562 0 402 3 537 12 546
7 7 26 12 42 12 17 0 48 3 69 6 l37 7 0 53 0 54 -300 0 -300 0 0 -54z"/>
<path d="M4557 5943 c-4 -3 -7 -28 -7 -53 0 -45 2 -48 31 -54 17 -3 48 -6 68
-6 20 0 42 -5 49 -12 9 -9 12 -143 12 -540 0 -515 -1 -529 -20 -548 -11 -11
-33 -20 -49 -20 -16 0 -43 -3 -60 -6 -31 -7 -32 -8 -29 -58 l3 -51 228 -3 227
-2 0 54 c0 60 -7 66 -81 66 -72 0 -69 -23 -68 541 l0 504 192 -580 193 -580
74 -3 75 -3 197 583 197 583 0 -507 c1 -278 -2 -513 -5 -522 -4 -10 -18 -16
-39 -16 -18 0 -47 -3 -64 -6 -30 -6 -31 -8 -31 -60 l0 -54 278 2 277 3 3 51 3
51 -38 7 c-21 3 -52 6 -70 6 -22 0 -36 6 -43 19 -15 30 -14 1073 2 1089 7 7
29 12 49 12 20 0 51 3 68 6 31 7 32 8 29 58 l-3 51 -262 3 -263 2 0 -27 c0
-20 -233 -743 -297 -923 -7 -19 -292 829 -301 895 l-7 50 -256 3 c-140 1 -258
-1 -262 -5z"/>
<path d="M6294 5936 c-3 -7 -4 -33 -2 -57 l3 -44 55 -6 c100 -10 90 50 90
-554 0 -605 8 -556 -89 -565 l-56 -5 0 -55 0 -55 530 0 530 0 0 185 0 185 -72
3 c-82 3 -72 17 -94 -133 -18 -125 5 -115 -254 -115 l-225 0 0 250 0 250 124
0 c136 0 141 -2 150 -62 3 -21 8 -54 12 -73 l5 -36 62 3 62 3 0 230 0 230 -62
3 c-69 3 -62 11 -79 -98 -3 -25 -11 -51 -16 -57 -7 -9 -47 -13 -134 -13 l-124
0 0 235 0 235 195 0 194 0 11 -37 c5 -21 16 -65 23 -98 l12 -60 73 -3 72 -3 0
166 0 165 -495 0 c-413 0 -497 -2 -501 -14z"/>
<path d="M7450 5896 l0 -54 63 -7 c34 -4 68 -12 75 -17 9 -8 12 -129 12 -544
l0 -533 -22 -15 c-14 -10 -44 -16 -75 -16 l-53 0 0 -60 0 -60 498 2 497 3 0
200 0 200 -73 3 c-52 2 -74 -1 -77 -10 -3 -7 -11 -64 -19 -126 -7 -62 -19
-119 -26 -127 -10 -12 -46 -15 -196 -15 l-184 0 0 544 c0 423 3 546 13 554 6
5 40 13 75 17 l62 7 0 54 0 54 -285 0 -285 0 0 -54z"/>
<path d="M8524 5936 c-3 -7 -4 -33 -2 -57 l3 -44 55 -6 c100 -10 90 50 90
-554 0 -605 8 -556 -89 -565 l-56 -5 0 -55 0 -55 530 0 530 0 0 185 0 185 -72
3 c-82 3 -72 17 -94 -133 -18 -125 5 -115 -254 -115 l-225 0 0 250 0 250 124
0 c136 0 141 -2 150 -62 3 -21 8 -54 12 -73 l5 -36 62 3 62 3 0 230 0 230 -62
3 c-69 3 -62 11 -79 -98 -3 -25 -11 -51 -16 -57 -7 -9 -47 -13 -134 -13 l-124
0 0 235 0 235 195 0 194 0 11 -37 c5 -21 16 -65 23 -98 l12 -60 73 -3 72 -3 0
166 0 165 -495 0 c-413 0 -497 -2 -501 -14z"/>
<path d="M12460 5765 l0 -185 69 0 c79 0 72 -11 92 130 7 47 17 91 22 98 7 8
45 12 128 12 l119 0 0 -538 c0 -612 6 -572 -82 -572 -73 0 -78 -5 -78 -66 l0
-54 298 2 297 3 3 49 c4 59 -4 66 -79 66 -30 0 -60 5 -67 12 -9 9 -12 146 -12
555 l0 543 114 0 c80 0 117 -4 124 -13 6 -7 18 -57 27 -112 9 -55 19 -103 24
-108 4 -4 37 -7 72 -5 l64 3 0 180 0 180 -567 3 -568 2 0 -185z"/>
<path d="M13642 5898 l3 -53 60 -3 c32 -2 65 -8 71 -13 9 -7 13 -127 17 -442
4 -359 7 -443 21 -497 53 -206 223 -314 496 -313 135 0 226 19 312 65 71 38
112 82 150 165 51 108 57 177 58 609 0 446 -6 415 89 424 l56 5 3 53 3 52
-230 0 -231 0 0 -55 0 -55 53 0 c31 0 61 -6 75 -16 l22 -15 0 -397 c0 -425 -4
-468 -51 -552 -15 -28 -42 -55 -73 -75 -48 -29 -53 -30 -170 -30 -99 0 -127 3
-156 19 -80 42 -121 101 -139 201 -16 88 -15 841 2 852 6 4 39 10 72 13 l60 5
3 53 3 52 -291 0 -291 0 3 -52z"/>
<path d="M15050 5896 l0 -53 38 -7 c20 -3 51 -6 68 -6 16 0 35 -5 42 -12 17
-17 17 -1079 0 -1096 -7 -7 -37 -12 -67 -12 -75 0 -83 -7 -79 -66 l3 -49 298
-3 297 -2 0 54 c0 61 -5 66 -78 66 -88 1 -82 -43 -82 562 0 402 3 537 12 546
7 7 26 12 42 12 17 0 48 3 69 6 l37 7 0 53 0 54 -300 0 -300 0 0 -54z"/>
<path d="M15720 5765 l0 -185 69 0 c79 0 72 -11 92 130 7 47 17 91 22 98 7 8
45 12 128 12 l119 0 0 -538 c0 -612 6 -572 -82 -572 -73 0 -78 -5 -78 -66 l0
-54 298 2 297 3 3 49 c4 59 -4 66 -79 66 -30 0 -60 5 -67 12 -9 9 -12 146 -12
555 l0 543 114 0 c80 0 117 -4 124 -13 6 -7 18 -57 27 -112 9 -55 19 -103 24
-108 4 -4 37 -7 72 -5 l64 3 0 180 0 180 -567 3 -568 2 0 -185z"/>
<path d="M16920 5896 l0 -53 38 -7 c20 -3 51 -6 68 -6 16 0 35 -5 42 -12 17
-17 17 -1079 0 -1096 -7 -7 -37 -12 -67 -12 -75 0 -83 -7 -79 -66 l3 -49 298
-3 297 -2 0 54 c0 61 -5 66 -78 66 -88 1 -82 -43 -82 562 0 402 3 537 12 546
7 7 26 12 43 12 16 0 47 3 68 6 l37 7 0 53 0 54 -300 0 -300 0 0 -54z"/>
<path d="M19087 5944 c-4 -4 -7 -28 -7 -54 0 -47 0 -47 38 -54 20 -3 51 -6 68
-6 16 0 35 -5 42 -12 9 -9 12 -142 12 -538 0 -603 8 -553 -96 -570 -33 -6 -60
-10 -62 -10 -2 0 -2 -24 0 -52 l3 -53 228 -3 227 -2 0 54 0 55 -37 6 c-80 13
-92 17 -102 29 -8 9 -10 152 -9 463 l3 449 334 -528 333 -529 112 3 111 3 3
599 c2 659 0 636 62 636 15 0 42 3 59 6 30 6 31 8 31 60 l0 54 -230 0 -230 0
0 -54 c0 -52 1 -54 31 -60 17 -3 44 -6 59 -6 15 0 34 -8 44 -18 15 -17 16 -58
14 -429 l-3 -411 -285 451 c-192 303 -287 463 -290 487 l-5 35 -226 3 c-124 1
-228 -1 -232 -4z"/>
<path d="M6935 4199 l-70 -144 -130 -21 -130 -22 -159 22 -160 21 -65 138
c-35 75 -67 137 -70 137 -3 0 -35 -63 -70 -139 l-63 -138 -132 -22 -131 -21
-130 20 c-71 11 -136 20 -143 20 -7 0 -43 64 -80 142 l-67 141 -67 -141 c-53
-112 -72 -142 -90 -147 -13 -2 -66 -12 -118 -20 -174 -28 -168 -11 -46 -134
l107 -107 -26 -153 c-14 -85 -24 -155 -23 -157 2 -1 62 31 133 71 l130 74 115
-61 c63 -34 121 -65 128 -71 7 -5 15 -7 18 -4 5 5 -28 234 -41 287 -2 8 37 59
90 115 l94 100 99 -98 99 -98 -24 -150 c-14 -83 -22 -153 -20 -155 3 -3 62 27
133 67 l128 73 55 -31 c31 -16 91 -49 135 -73 l78 -43 -6 29 c-3 16 -15 87
-27 157 l-21 128 98 102 c55 56 104 103 109 105 6 1 56 -44 113 -100 l102
-103 -25 -154 c-14 -85 -24 -155 -22 -157 1 -2 61 30 132 71 128 72 130 73
159 58 17 -9 75 -40 129 -70 55 -30 101 -52 104 -50 2 3 -7 71 -21 152 l-25
148 101 109 102 109 109 -109 109 -109 -24 -151 c-14 -84 -21 -152 -17 -152 4
0 47 23 96 51 48 28 105 60 126 70 l38 20 125 -67 c69 -36 128 -64 131 -60 3
3 -5 70 -17 150 l-24 144 71 79 c39 43 85 91 102 108 l32 29 106 -106 107
-107 -23 -151 c-13 -83 -22 -153 -20 -154 2 -2 62 29 132 69 l128 72 130 -70
c72 -38 132 -68 134 -66 1 2 -8 67 -21 144 -13 77 -24 146 -24 153 0 7 48 63
107 123 58 60 104 109 101 109 -2 0 -69 9 -148 20 -79 11 -144 20 -145 20 -1
0 -30 61 -65 135 -34 74 -66 135 -69 135 -4 0 -36 -62 -72 -138 l-65 -137
-140 -22 -139 -22 -150 22 -150 22 -69 140 -68 140 -64 -134 c-35 -73 -64
-137 -64 -141 0 -4 -62 -17 -139 -30 -136 -22 -141 -22 -262 -6 -212 28 -182
8 -258 168 l-66 140 -70 -143z"/>
<path d="M11270 4088 c0 -24 -3 -60 -6 -80 -6 -34 -4 -38 15 -38 15 0 25 11
36 37 20 46 29 53 83 53 l42 0 -2 -212 -3 -212 -32 -10 c-22 -6 -33 -15 -33
-27 0 -17 10 -19 120 -19 109 0 120 2 120 18 0 13 -11 21 -37 28 l-38 9 -3
213 -2 213 52 -3 c52 -3 54 -4 73 -45 12 -27 26 -43 37 -43 16 0 18 10 18 80
0 73 -2 80 -19 80 -11 0 -23 -4 -26 -10 -4 -6 -73 -10 -175 -10 -102 0 -171 4
-175 10 -3 6 -15 10 -26 10 -16 0 -19 -7 -19 -42z"/>
<path d="M12350 4088 c0 -24 -3 -60 -6 -80 -6 -34 -4 -38 15 -38 15 0 25 11
36 37 20 46 29 53 83 53 l42 0 -2 -212 -3 -212 -32 -10 c-22 -6 -33 -15 -33
-27 0 -17 10 -19 120 -19 109 0 120 2 120 18 0 13 -11 21 -37 28 l-38 9 -3
213 -2 213 52 -3 c52 -3 54 -4 73 -45 12 -27 26 -43 37 -43 16 0 18 10 18 80
0 73 -2 80 -19 80 -11 0 -23 -4 -26 -10 -4 -6 -73 -10 -175 -10 -102 0 -171 4
-175 10 -3 6 -15 10 -26 10 -16 0 -19 -7 -19 -42z"/>
<path d="M12984 4096 c-92 -43 -149 -142 -148 -261 1 -152 112 -265 259 -265
140 1 240 101 253 255 13 169 -95 295 -253 295 -42 0 -75 -7 -111 -24z m177
-49 c19 -12 45 -43 59 -67 22 -40 25 -57 25 -150 0 -93 -3 -109 -23 -143 -29
-45 -68 -67 -120 -67 -57 0 -102 34 -136 104 -57 113 -33 277 46 326 45 27
106 26 149 -3z"/>
<path d="M14970 4111 c-50 -16 -87 -40 -127 -84 -50 -54 -67 -103 -67 -188 0
-118 68 -218 173 -254 54 -18 156 -19 231 -1 l55 13 -3 72 c-5 92 2 121 28
121 15 0 20 7 20 25 l0 25 -105 0 -105 0 0 -25 c0 -21 5 -25 28 -25 41 0 52
-17 52 -80 0 -72 -17 -90 -86 -90 -75 0 -122 32 -159 105 -26 51 -30 71 -29
136 1 89 27 149 84 187 30 20 44 23 102 20 76 -4 109 -26 129 -85 7 -23 16
-33 27 -31 14 3 17 15 14 73 -2 39 -7 74 -12 79 -12 12 -217 18 -250 7z"/>
<path d="M16114 4096 c-92 -43 -149 -142 -148 -261 1 -152 112 -265 259 -265
140 1 240 101 253 255 13 169 -95 295 -253 295 -42 0 -75 -7 -111 -24z m177
-49 c19 -12 45 -43 59 -67 22 -40 25 -57 25 -150 0 -93 -3 -109 -23 -143 -29
-45 -68 -67 -120 -67 -57 0 -102 34 -136 104 -57 113 -33 277 46 326 45 27
106 26 149 -3z"/>
<path d="M17291 4102 c-53 -26 -76 -65 -76 -126 0 -69 20 -97 108 -153 40 -25
80 -55 89 -67 24 -29 22 -78 -3 -110 -42 -53 -132 -20 -161 59 -12 35 -23 42
-44 27 -7 -5 -7 -26 0 -71 10 -61 13 -65 46 -77 131 -47 263 23 263 140 0 63
-26 103 -95 144 -87 53 -128 94 -128 129 0 47 25 73 71 73 46 0 77 -25 86 -70
3 -17 11 -30 17 -30 27 1 33 16 28 73 -4 51 -8 60 -29 68 -40 15 -135 11 -172
-9z"/>
<path d="M18313 4100 c-224 -90 -221 -438 5 -514 46 -16 159 -20 217 -7 33 7
58 48 70 114 6 33 5 37 -14 37 -12 0 -26 -11 -35 -29 -27 -51 -72 -81 -122
-81 -121 0 -187 82 -188 235 0 67 4 88 25 125 35 63 79 90 148 90 71 0 114
-25 131 -74 8 -26 17 -36 32 -36 20 0 21 4 14 72 -3 39 -8 74 -11 76 -2 2 -53
6 -112 8 -92 4 -116 1 -160 -16z"/>
<path d="M18843 4100 c-224 -90 -221 -438 5 -514 46 -16 159 -20 217 -7 33 7
58 48 70 114 6 33 5 37 -14 37 -12 0 -26 -11 -35 -29 -27 -51 -72 -81 -122
-81 -121 0 -187 82 -188 235 0 67 4 88 25 125 35 63 79 90 148 90 71 0 114
-25 131 -74 8 -26 17 -36 32 -36 20 0 21 4 14 72 -3 39 -8 74 -11 76 -2 2 -53
6 -112 8 -92 4 -116 1 -160 -16z"/>
<path d="M19761 4102 c-53 -26 -76 -65 -76 -126 0 -69 20 -97 108 -153 40 -25
80 -55 89 -67 24 -29 22 -78 -3 -110 -42 -53 -132 -20 -161 59 -12 35 -23 42
-44 27 -7 -5 -7 -26 0 -71 10 -61 13 -65 46 -77 131 -47 263 23 263 140 0 63
-26 103 -95 144 -87 53 -128 94 -128 129 0 47 25 73 71 73 46 0 77 -25 86 -70
3 -17 11 -30 17 -30 27 1 33 16 28 73 -4 51 -8 60 -29 68 -40 15 -135 11 -172
-9z"/>
<path d="M20141 4102 c-53 -26 -76 -65 -76 -126 0 -69 20 -97 108 -153 40 -25
80 -55 89 -67 24 -29 22 -78 -3 -110 -42 -53 -132 -20 -161 59 -12 35 -23 42
-44 27 -7 -5 -7 -26 0 -71 10 -61 13 -65 46 -77 131 -47 263 23 263 140 0 63
-26 103 -95 144 -87 53 -128 94 -128 129 0 47 25 73 71 73 46 0 77 -25 86 -70
3 -17 11 -30 17 -30 27 1 33 16 28 73 -4 51 -8 60 -29 68 -40 15 -135 11 -172
-9z"/>
<path d="M11760 4090 c0 -13 7 -20 19 -20 45 0 51 -21 51 -191 0 -174 8 -210
57 -262 51 -52 168 -64 244 -24 32 17 50 37 69 72 23 46 25 63 30 220 l5 170
33 10 c21 6 32 15 32 27 0 16 -11 18 -105 18 -98 0 -105 -1 -105 -20 0 -14 7
-20 21 -20 11 0 29 -5 40 -10 18 -10 19 -23 19 -166 0 -214 -20 -254 -125
-254 -104 0 -128 42 -133 241 -5 161 2 189 43 189 18 0 25 5 25 20 0 19 -7 20
-110 20 -103 0 -110 -1 -110 -20z"/>
<path d="M13420 4092 c0 -12 11 -21 33 -27 l32 -10 0 -210 0 -209 -32 -10
c-22 -6 -33 -15 -33 -27 0 -17 10 -19 115 -19 105 0 115 2 115 19 0 12 -11 21
-32 27 l-33 10 -3 83 -3 82 27 -3 c22 -2 37 -19 76 -83 65 -105 81 -121 133
-134 65 -16 75 -14 75 14 0 14 -6 25 -13 25 -7 0 -25 12 -39 28 -26 27 -118
165 -118 177 0 3 16 19 35 36 82 72 61 201 -38 238 -16 6 -89 11 -163 11 -122
0 -134 -2 -134 -18z m265 -57 c20 -19 25 -34 25 -75 0 -44 -5 -56 -29 -81 -22
-21 -39 -29 -65 -29 l-36 0 0 105 0 105 40 0 c30 0 47 -7 65 -25z"/>
<path d="M13900 4092 c0 -12 11 -21 33 -27 l32 -10 0 -210 0 -209 -32 -10
c-22 -6 -33 -15 -33 -27 0 -17 10 -19 115 -19 105 0 115 2 115 19 0 12 -11 21
-32 27 l-33 10 -3 209 c-3 222 -2 225 46 225 15 0 22 6 22 20 0 19 -7 20 -115
20 -104 0 -115 -2 -115 -18z"/>
<path d="M14180 4090 c0 -13 7 -20 20 -20 11 0 29 -9 40 -20 19 -19 20 -33 20
-201 0 -99 -4 -189 -10 -199 -5 -10 -21 -21 -35 -24 -16 -4 -25 -13 -25 -26 0
-19 7 -20 100 -20 93 0 100 1 100 20 0 14 -10 22 -32 28 l-33 8 -2 160 c-2
127 0 156 10 144 6 -9 74 -95 150 -193 94 -120 145 -177 158 -177 18 0 19 9
19 168 0 93 3 203 6 245 7 73 8 76 35 82 20 5 29 13 29 26 0 17 -8 19 -100 19
-91 0 -100 -2 -100 -19 0 -14 10 -21 35 -25 43 -8 47 -26 43 -198 l-3 -127
-148 184 -147 185 -65 0 c-58 0 -65 -2 -65 -20z"/>
<path d="M15520 4092 c0 -12 11 -21 33 -27 l32 -10 0 -210 0 -209 -32 -10
c-22 -6 -33 -15 -33 -27 0 -17 10 -19 115 -19 105 0 115 2 115 19 0 12 -11 21
-32 27 l-33 10 -3 92 -3 93 63 -3 c61 -3 62 -4 70 -35 6 -23 14 -33 28 -33 19
0 20 7 20 95 0 88 -1 95 -20 95 -13 0 -22 -9 -26 -25 -8 -33 -32 -45 -88 -45
l-46 0 0 95 0 96 68 -3 67 -3 20 -42 c15 -32 25 -42 40 -40 11 1 19 5 18 10
-2 4 -3 34 -3 67 l0 60 -185 0 c-171 0 -185 -1 -185 -18z"/>
<path d="M16540 4092 c0 -12 11 -21 33 -27 l32 -10 0 -210 0 -209 -32 -10
c-22 -6 -33 -15 -33 -27 0 -17 10 -19 115 -19 105 0 115 2 115 19 0 12 -11 21
-32 27 l-33 10 -3 83 -3 82 27 -3 c22 -2 37 -19 76 -83 65 -105 81 -121 133
-134 65 -16 75 -14 75 14 0 14 -6 25 -13 25 -7 0 -25 12 -39 28 -26 27 -118
165 -118 177 0 3 16 19 35 36 82 72 61 201 -38 238 -16 6 -89 11 -163 11 -122
0 -134 -2 -134 -18z m265 -57 c20 -19 25 -34 25 -75 0 -44 -5 -56 -29 -81 -22
-21 -39 -29 -65 -29 l-36 0 0 105 0 105 40 0 c30 0 47 -7 65 -25z"/>
<path d="M17560 4090 c0 -13 7 -20 19 -20 45 0 51 -21 51 -191 0 -174 8 -210
57 -262 51 -52 168 -64 244 -24 32 17 50 37 69 72 23 46 25 63 30 220 l5 170
33 10 c21 6 32 15 32 27 0 16 -11 18 -105 18 -98 0 -105 -1 -105 -20 0 -14 7
-20 21 -20 11 0 29 -5 40 -10 18 -10 19 -23 19 -166 0 -214 -20 -254 -125
-254 -104 0 -128 42 -133 241 -5 161 2 189 43 189 18 0 25 5 25 20 0 19 -7 20
-110 20 -103 0 -110 -1 -110 -20z"/>
<path d="M19210 4090 c0 -13 7 -20 19 -20 38 0 42 -20 39 -231 l-3 -204 -37
-9 c-27 -7 -38 -15 -38 -28 0 -17 13 -18 195 -18 l194 0 11 38 c5 20 13 54 16
75 6 32 4 37 -12 37 -12 0 -27 -14 -39 -36 -29 -54 -53 -65 -127 -62 l-63 3
-3 98 -3 97 48 0 c58 0 69 -7 78 -43 5 -17 14 -27 26 -27 17 0 19 8 19 95 0
87 -2 95 -19 95 -12 0 -21 -10 -26 -27 -9 -36 -20 -43 -77 -43 l-48 0 0 90 0
91 68 -3 67 -3 20 -42 c12 -27 26 -43 37 -43 16 0 18 10 18 70 l0 70 -180 0
c-173 0 -180 -1 -180 -20z"/>
<path d="M9144 3876 c-3 -7 -4 -35 -2 -62 l3 -49 83 0 c45 0 372 2 727 3 l645
2 0 60 0 60 -725 0 c-607 0 -726 -2 -731 -14z"/>
<path d="M3250 3810 l0 -60 770 0 770 0 0 60 0 60 -770 0 -770 0 0 -60z"/>
</g>
</svg>
