<svg xmlns="http://www.w3.org/2000/svg" width="1440" height="128"><path d="M698,79L703,103L721,103Z" fill="rgb(247,66,100)" stroke="rgb(247,66,100)" stroke-width="1.51"/><path d="M721,103L763,85L698,79Z" fill="rgb(248,66,99)" stroke="rgb(248,66,99)" stroke-width="1.51"/><path d="M763,85L686,1L698,79Z" fill="rgb(251,70,98)" stroke="rgb(251,70,98)" stroke-width="1.51"/><path d="M698,79L594,128L703,103Z" fill="rgb(246,66,103)" stroke="rgb(246,66,103)" stroke-width="1.51"/><path d="M686,1L617,30L698,79Z" fill="rgb(250,77,107)" stroke="rgb(250,77,107)" stroke-width="1.51"/><path d="M763,85L771,-38L686,1Z" fill="rgb(249,81,115)" stroke="rgb(249,81,115)" stroke-width="1.51"/><path d="M775,221L823,103L763,85Z" fill="rgb(241,63,106)" stroke="rgb(241,63,106)" stroke-width="1.51"/><path d="M823,103L827,52L763,85Z" fill="rgb(248,65,99)" stroke="rgb(248,65,99)" stroke-width="1.51"/><path d="M617,30L594,128L698,79Z" fill="rgb(249,69,100)" stroke="rgb(249,69,100)" stroke-width="1.51"/><path d="M703,103L651,216L721,103Z" fill="rgb(242,65,106)" stroke="rgb(242,65,106)" stroke-width="1.51"/><path d="M721,103L775,221L763,85Z" fill="rgb(242,64,106)" stroke="rgb(242,64,106)" stroke-width="1.51"/><path d="M617,30L596,28L594,128Z" fill="rgb(251,71,99)" stroke="rgb(251,71,99)" stroke-width="1.51"/><path d="M658,-70L596,28L617,30Z" fill="rgb(249,88,125)" stroke="rgb(249,88,125)" stroke-width="1.51"/><path d="M594,128L617,185L703,103Z" fill="rgb(242,66,108)" stroke="rgb(242,66,108)" stroke-width="1.51"/><path d="M827,52L771,-38L763,85Z" fill="rgb(249,76,108)" stroke="rgb(249,76,108)" stroke-width="1.51"/><path d="M686,1L658,-70L617,30Z" fill="rgb(249,87,124)" stroke="rgb(249,87,124)" stroke-width="1.51"/><path d="M617,185L651,216L703,103Z" fill="rgb(242,66,108)" stroke="rgb(242,66,108)" stroke-width="1.51"/><path d="M651,216L775,221L721,103Z" fill="rgb(242,64,105)" stroke="rgb(242,64,105)" stroke-width="1.51"/><path d="M594,128L570,138L617,185Z" fill="rgb(242,68,110)" stroke="rgb(242,68,110)" stroke-width="1.51"/><path d="M551,92L570,138L594,128Z" fill="rgb(243,69,109)" stroke="rgb(243,69,109)" stroke-width="1.51"/><path d="M827,52L828,-23L771,-38Z" fill="rgb(248,85,123)" stroke="rgb(248,85,123)" stroke-width="1.51"/><path d="M596,28L551,92L594,128Z" fill="rgb(248,70,103)" stroke="rgb(248,70,103)" stroke-width="1.51"/><path d="M771,-38L658,-70L686,1Z" fill="rgb(249,86,122)" stroke="rgb(249,86,122)" stroke-width="1.51"/><path d="M596,28L531,11L551,92Z" fill="rgb(250,78,108)" stroke="rgb(250,78,108)" stroke-width="1.51"/><path d="M778,-85L658,-70L771,-38Z" fill="rgb(249,86,121)" stroke="rgb(249,86,121)" stroke-width="1.51"/><path d="M823,103L897,90L827,52Z" fill="rgb(247,65,99)" stroke="rgb(247,65,99)" stroke-width="1.51"/><path d="M827,52L927,26L828,-23Z" fill="rgb(248,80,115)" stroke="rgb(248,80,115)" stroke-width="1.51"/><path d="M879,218L893,109L823,103Z" fill="rgb(240,63,108)" stroke="rgb(240,63,108)" stroke-width="1.51"/><path d="M775,221L827,231L823,103Z" fill="rgb(241,63,107)" stroke="rgb(241,63,107)" stroke-width="1.51"/><path d="M651,216L827,231L775,221Z" fill="rgb(242,64,106)" stroke="rgb(242,64,106)" stroke-width="1.51"/><path d="M893,109L897,90L823,103Z" fill="rgb(244,64,103)" stroke="rgb(244,64,103)" stroke-width="1.51"/><path d="M817,-74L778,-85L771,-38Z" fill="rgb(248,85,122)" stroke="rgb(248,85,122)" stroke-width="1.51"/><path d="M902,-82L817,-74L828,-23Z" fill="rgb(247,85,123)" stroke="rgb(247,85,123)" stroke-width="1.51"/><path d="M828,-23L817,-74L771,-38Z" fill="rgb(248,85,123)" stroke="rgb(248,85,123)" stroke-width="1.51"/><path d="M591,-107L531,11L596,28Z" fill="rgb(248,89,127)" stroke="rgb(248,89,127)" stroke-width="1.51"/><path d="M551,92L527,181L570,138Z" fill="rgb(242,69,112)" stroke="rgb(242,69,112)" stroke-width="1.51"/><path d="M570,138L527,181L617,185Z" fill="rgb(242,68,111)" stroke="rgb(242,68,111)" stroke-width="1.51"/><path d="M617,185L527,181L651,216Z" fill="rgb(242,68,110)" stroke="rgb(242,68,110)" stroke-width="1.51"/><path d="M447,163L527,181L551,92Z" fill="rgb(242,70,113)" stroke="rgb(242,70,113)" stroke-width="1.51"/><path d="M827,231L879,218L823,103Z" fill="rgb(241,63,107)" stroke="rgb(241,63,107)" stroke-width="1.51"/><path d="M971,92L927,26L897,90Z" fill="rgb(248,65,99)" stroke="rgb(248,65,99)" stroke-width="1.51"/><path d="M897,90L927,26L827,52Z" fill="rgb(249,69,100)" stroke="rgb(249,69,100)" stroke-width="1.51"/><path d="M971,92L897,90L893,109Z" fill="rgb(244,64,103)" stroke="rgb(244,64,103)" stroke-width="1.51"/><path d="M658,-70L591,-107L596,28Z" fill="rgb(249,88,125)" stroke="rgb(249,88,125)" stroke-width="1.51"/><path d="M778,-85L591,-107L658,-70Z" fill="rgb(249,87,123)" stroke="rgb(249,87,123)" stroke-width="1.51"/><path d="M927,26L902,-82L828,-23Z" fill="rgb(247,85,124)" stroke="rgb(247,85,124)" stroke-width="1.51"/><path d="M817,-74L902,-82L778,-85Z" fill="rgb(247,85,123)" stroke="rgb(247,85,123)" stroke-width="1.51"/><path d="M778,-85L1040,-93L591,-107Z" fill="rgb(248,85,123)" stroke="rgb(248,85,123)" stroke-width="1.51"/><path d="M988,131L971,92L893,109Z" fill="rgb(242,64,106)" stroke="rgb(242,64,106)" stroke-width="1.51"/><path d="M927,26L974,-55L902,-82Z" fill="rgb(246,85,125)" stroke="rgb(246,85,125)" stroke-width="1.51"/><path d="M531,11L450,71L551,92Z" fill="rgb(251,75,104)" stroke="rgb(251,75,104)" stroke-width="1.51"/><path d="M452,-37L450,71L531,11Z" fill="rgb(249,88,124)" stroke="rgb(249,88,124)" stroke-width="1.51"/><path d="M591,-107L528,-108L531,11Z" fill="rgb(248,90,128)" stroke="rgb(248,90,128)" stroke-width="1.51"/><path d="M971,92L974,13L927,26Z" fill="rgb(248,72,106)" stroke="rgb(248,72,106)" stroke-width="1.51"/><path d="M527,181L394,230L651,216Z" fill="rgb(242,70,113)" stroke="rgb(242,70,113)" stroke-width="1.51"/><path d="M450,71L447,163L551,92Z" fill="rgb(245,72,111)" stroke="rgb(245,72,111)" stroke-width="1.51"/><path d="M971,92L1023,40L974,13Z" fill="rgb(247,71,104)" stroke="rgb(247,71,104)" stroke-width="1.51"/><path d="M986,190L988,131L893,109Z" fill="rgb(239,63,109)" stroke="rgb(239,63,109)" stroke-width="1.51"/><path d="M447,163L445,192L527,181Z" fill="rgb(242,71,115)" stroke="rgb(242,71,115)" stroke-width="1.51"/><path d="M394,230L445,192L447,163Z" fill="rgb(241,72,116)" stroke="rgb(241,72,116)" stroke-width="1.51"/><path d="M450,71L407,115L447,163Z" fill="rgb(243,72,114)" stroke="rgb(243,72,114)" stroke-width="1.51"/><path d="M462,-67L452,-37L531,11Z" fill="rgb(248,91,130)" stroke="rgb(248,91,130)" stroke-width="1.51"/><path d="M879,218L986,190L893,109Z" fill="rgb(240,63,108)" stroke="rgb(240,63,108)" stroke-width="1.51"/><path d="M528,-108L462,-67L531,11Z" fill="rgb(248,91,129)" stroke="rgb(248,91,129)" stroke-width="1.51"/><path d="M974,13L974,-55L927,26Z" fill="rgb(246,85,125)" stroke="rgb(246,85,125)" stroke-width="1.51"/><path d="M1004,-25L974,-55L974,13Z" fill="rgb(246,85,125)" stroke="rgb(246,85,125)" stroke-width="1.51"/><path d="M988,131L1016,117L971,92Z" fill="rgb(241,63,107)" stroke="rgb(241,63,107)" stroke-width="1.51"/><path d="M1029,203L1016,117L988,131Z" fill="rgb(239,62,110)" stroke="rgb(239,62,110)" stroke-width="1.51"/><path d="M403,81L407,115L450,71Z" fill="rgb(247,74,110)" stroke="rgb(247,74,110)" stroke-width="1.51"/><path d="M372,13L403,81L450,71Z" fill="rgb(250,78,110)" stroke="rgb(250,78,110)" stroke-width="1.51"/><path d="M372,13L450,71L452,-37Z" fill="rgb(248,89,125)" stroke="rgb(248,89,125)" stroke-width="1.51"/><path d="M1023,40L1004,-25L974,13Z" fill="rgb(245,82,122)" stroke="rgb(245,82,122)" stroke-width="1.51"/><path d="M1016,117L1023,40L971,92Z" fill="rgb(245,65,102)" stroke="rgb(245,65,102)" stroke-width="1.51"/><path d="M462,-67L426,-84L452,-37Z" fill="rgb(248,92,132)" stroke="rgb(248,92,132)" stroke-width="1.51"/><path d="M528,-108L426,-84L462,-67Z" fill="rgb(248,91,131)" stroke="rgb(248,91,131)" stroke-width="1.51"/><path d="M986,190L1029,203L988,131Z" fill="rgb(239,63,110)" stroke="rgb(239,63,110)" stroke-width="1.51"/><path d="M1016,117L1088,61L1023,40Z" fill="rgb(246,65,101)" stroke="rgb(246,65,101)" stroke-width="1.51"/><path d="M879,218L1029,203L986,190Z" fill="rgb(239,63,109)" stroke="rgb(239,63,109)" stroke-width="1.51"/><path d="M1140,226L1029,203L879,218Z" fill="rgb(239,62,110)" stroke="rgb(239,62,110)" stroke-width="1.51"/><path d="M407,115L394,230L447,163Z" fill="rgb(241,72,117)" stroke="rgb(241,72,117)" stroke-width="1.51"/><path d="M445,192L394,230L527,181Z" fill="rgb(242,71,115)" stroke="rgb(242,71,115)" stroke-width="1.51"/><path d="M651,216L394,230L827,231Z" fill="rgb(242,66,109)" stroke="rgb(242,66,109)" stroke-width="1.51"/><path d="M349,220L394,230L407,115Z" fill="rgb(241,73,118)" stroke="rgb(241,73,118)" stroke-width="1.51"/><path d="M403,81L342,102L407,115Z" fill="rgb(245,75,112)" stroke="rgb(245,75,112)" stroke-width="1.51"/><path d="M366,-15L372,13L452,-37Z" fill="rgb(247,93,133)" stroke="rgb(247,93,133)" stroke-width="1.51"/><path d="M343,32L342,102L403,81Z" fill="rgb(249,76,109)" stroke="rgb(249,76,109)" stroke-width="1.51"/><path d="M426,-84L366,-15L452,-37Z" fill="rgb(247,93,133)" stroke="rgb(247,93,133)" stroke-width="1.51"/><path d="M343,32L403,81L372,13Z" fill="rgb(250,83,116)" stroke="rgb(250,83,116)" stroke-width="1.51"/><path d="M366,-15L343,32L372,13Z" fill="rgb(248,92,130)" stroke="rgb(248,92,130)" stroke-width="1.51"/><path d="M1004,-25L1040,-93L974,-55Z" fill="rgb(245,85,126)" stroke="rgb(245,85,126)" stroke-width="1.51"/><path d="M974,-55L1040,-93L902,-82Z" fill="rgb(246,85,125)" stroke="rgb(246,85,125)" stroke-width="1.51"/><path d="M902,-82L1040,-93L778,-85Z" fill="rgb(246,85,124)" stroke="rgb(246,85,124)" stroke-width="1.51"/><path d="M1087,-46L1040,-93L1004,-25Z" fill="rgb(245,84,126)" stroke="rgb(245,84,126)" stroke-width="1.51"/><path d="M1087,-46L1004,-25L1023,40Z" fill="rgb(245,84,126)" stroke="rgb(245,84,126)" stroke-width="1.51"/><path d="M1029,203L1078,175L1016,117Z" fill="rgb(238,62,110)" stroke="rgb(238,62,110)" stroke-width="1.51"/><path d="M1116,107L1088,61L1016,117Z" fill="rgb(242,64,105)" stroke="rgb(242,64,105)" stroke-width="1.51"/><path d="M342,102L349,220L407,115Z" fill="rgb(241,73,119)" stroke="rgb(241,73,119)" stroke-width="1.51"/><path d="M1120,-13L1087,-46L1023,40Z" fill="rgb(244,84,127)" stroke="rgb(244,84,127)" stroke-width="1.51"/><path d="M1088,61L1120,-13L1023,40Z" fill="rgb(246,76,114)" stroke="rgb(246,76,114)" stroke-width="1.51"/><path d="M1078,175L1116,107L1016,117Z" fill="rgb(238,62,111)" stroke="rgb(238,62,111)" stroke-width="1.51"/><path d="M366,-15L293,-5L343,32Z" fill="rgb(248,94,134)" stroke="rgb(248,94,134)" stroke-width="1.51"/><path d="M220,76L294,158L342,102Z" fill="rgb(243,76,119)" stroke="rgb(243,76,119)" stroke-width="1.51"/><path d="M342,102L294,158L349,220Z" fill="rgb(241,75,120)" stroke="rgb(241,75,120)" stroke-width="1.51"/><path d="M426,-84L328,-60L366,-15Z" fill="rgb(247,94,134)" stroke="rgb(247,94,134)" stroke-width="1.51"/><path d="M1148,32L1120,-13L1088,61Z" fill="rgb(245,77,116)" stroke="rgb(245,77,116)" stroke-width="1.51"/><path d="M238,35L342,102L343,32Z" fill="rgb(250,80,112)" stroke="rgb(250,80,112)" stroke-width="1.51"/><path d="M328,-60L293,-5L366,-15Z" fill="rgb(247,95,136)" stroke="rgb(247,95,136)" stroke-width="1.51"/><path d="M1116,107L1148,32L1088,61Z" fill="rgb(246,65,101)" stroke="rgb(246,65,101)" stroke-width="1.51"/><path d="M1078,175L1193,151L1116,107Z" fill="rgb(237,62,112)" stroke="rgb(237,62,112)" stroke-width="1.51"/><path d="M1116,107L1218,79L1148,32Z" fill="rgb(245,64,103)" stroke="rgb(245,64,103)" stroke-width="1.51"/><path d="M1029,203L1140,226L1078,175Z" fill="rgb(238,62,111)" stroke="rgb(238,62,111)" stroke-width="1.51"/><path d="M827,231L1140,226L879,218Z" fill="rgb(239,63,109)" stroke="rgb(239,63,109)" stroke-width="1.51"/><path d="M294,158L256,173L349,220Z" fill="rgb(241,76,121)" stroke="rgb(241,76,121)" stroke-width="1.51"/><path d="M220,76L256,173L294,158Z" fill="rgb(241,77,122)" stroke="rgb(241,77,122)" stroke-width="1.51"/><path d="M1120,-13L1179,-74L1087,-46Z" fill="rgb(243,84,128)" stroke="rgb(243,84,128)" stroke-width="1.51"/><path d="M1087,-46L1179,-74L1040,-93Z" fill="rgb(244,84,127)" stroke="rgb(244,84,127)" stroke-width="1.51"/><path d="M1148,32L1165,-16L1120,-13Z" fill="rgb(243,84,127)" stroke="rgb(243,84,127)" stroke-width="1.51"/><path d="M1250,8L1165,-16L1148,32Z" fill="rgb(243,82,125)" stroke="rgb(243,82,125)" stroke-width="1.51"/><path d="M293,-5L238,35L343,32Z" fill="rgb(248,91,128)" stroke="rgb(248,91,128)" stroke-width="1.51"/><path d="M328,-60L279,-100L293,-5Z" fill="rgb(247,96,137)" stroke="rgb(247,96,137)" stroke-width="1.51"/><path d="M426,-84L279,-100L328,-60Z" fill="rgb(247,94,135)" stroke="rgb(247,94,135)" stroke-width="1.51"/><path d="M528,-108L279,-100L426,-84Z" fill="rgb(247,93,133)" stroke="rgb(247,93,133)" stroke-width="1.51"/><path d="M214,-47L238,35L293,-5Z" fill="rgb(247,97,139)" stroke="rgb(247,97,139)" stroke-width="1.51"/><path d="M1140,226L1193,151L1078,175Z" fill="rgb(237,62,112)" stroke="rgb(237,62,112)" stroke-width="1.51"/><path d="M184,-14L220,76L238,35Z" fill="rgb(249,90,126)" stroke="rgb(249,90,126)" stroke-width="1.51"/><path d="M238,35L220,76L342,102Z" fill="rgb(249,79,112)" stroke="rgb(249,79,112)" stroke-width="1.51"/><path d="M1165,-16L1179,-74L1120,-13Z" fill="rgb(243,84,128)" stroke="rgb(243,84,128)" stroke-width="1.51"/><path d="M1245,-71L1179,-74L1165,-16Z" fill="rgb(242,84,129)" stroke="rgb(242,84,129)" stroke-width="1.51"/><path d="M1193,151L1218,79L1116,107Z" fill="rgb(239,62,110)" stroke="rgb(239,62,110)" stroke-width="1.51"/><path d="M279,-100L214,-47L293,-5Z" fill="rgb(247,96,139)" stroke="rgb(247,96,139)" stroke-width="1.51"/><path d="M256,173L189,210L349,220Z" fill="rgb(241,76,122)" stroke="rgb(241,76,122)" stroke-width="1.51"/><path d="M349,220L189,210L394,230Z" fill="rgb(241,75,120)" stroke="rgb(241,75,120)" stroke-width="1.51"/><path d="M169,108L189,210L256,173Z" fill="rgb(240,78,124)" stroke="rgb(240,78,124)" stroke-width="1.51"/><path d="M169,108L256,173L220,76Z" fill="rgb(242,78,122)" stroke="rgb(242,78,122)" stroke-width="1.51"/><path d="M214,-47L184,-14L238,35Z" fill="rgb(247,98,141)" stroke="rgb(247,98,141)" stroke-width="1.51"/><path d="M114,60L169,108L220,76Z" fill="rgb(247,81,118)" stroke="rgb(247,81,118)" stroke-width="1.51"/><path d="M1264,105L1250,8L1218,79Z" fill="rgb(245,65,102)" stroke="rgb(245,65,102)" stroke-width="1.51"/><path d="M1218,79L1250,8L1148,32Z" fill="rgb(245,72,112)" stroke="rgb(245,72,112)" stroke-width="1.51"/><path d="M1193,151L1264,105L1218,79Z" fill="rgb(238,63,110)" stroke="rgb(238,63,110)" stroke-width="1.51"/><path d="M1264,227L1264,105L1193,151Z" fill="rgb(236,62,113)" stroke="rgb(236,62,113)" stroke-width="1.51"/><path d="M1179,-74L1428,-110L1040,-93Z" fill="rgb(242,84,129)" stroke="rgb(242,84,129)" stroke-width="1.51"/><path d="M1250,8L1245,-71L1165,-16Z" fill="rgb(242,84,129)" stroke="rgb(242,84,129)" stroke-width="1.51"/><path d="M1306,11L1245,-71L1250,8Z" fill="rgb(241,83,130)" stroke="rgb(241,83,130)" stroke-width="1.51"/><path d="M169,108L146,123L189,210Z" fill="rgb(240,79,126)" stroke="rgb(240,79,126)" stroke-width="1.51"/><path d="M114,60L146,123L169,108Z" fill="rgb(245,81,121)" stroke="rgb(245,81,121)" stroke-width="1.51"/><path d="M1140,226L1264,227L1193,151Z" fill="rgb(236,62,113)" stroke="rgb(236,62,113)" stroke-width="1.51"/><path d="M827,231L1264,227L1140,226Z" fill="rgb(238,62,111)" stroke="rgb(238,62,111)" stroke-width="1.51"/><path d="M184,-14L141,-3L220,76Z" fill="rgb(248,93,133)" stroke="rgb(248,93,133)" stroke-width="1.51"/><path d="M147,-80L141,-3L184,-14Z" fill="rgb(246,99,143)" stroke="rgb(246,99,143)" stroke-width="1.51"/><path d="M147,-80L184,-14L214,-47Z" fill="rgb(246,98,142)" stroke="rgb(246,98,142)" stroke-width="1.51"/><path d="M279,-100L147,-80L214,-47Z" fill="rgb(247,98,140)" stroke="rgb(247,98,140)" stroke-width="1.51"/><path d="M49,36L114,60L141,-3Z" fill="rgb(248,92,131)" stroke="rgb(248,92,131)" stroke-width="1.51"/><path d="M141,-3L114,60L220,76Z" fill="rgb(249,87,124)" stroke="rgb(249,87,124)" stroke-width="1.51"/><path d="M146,123L93,182L189,210Z" fill="rgb(240,80,127)" stroke="rgb(240,80,127)" stroke-width="1.51"/><path d="M1264,105L1306,11L1250,8Z" fill="rgb(244,72,112)" stroke="rgb(244,72,112)" stroke-width="1.51"/><path d="M1347,70L1306,11L1264,105Z" fill="rgb(244,65,104)" stroke="rgb(244,65,104)" stroke-width="1.51"/><path d="M35,114L93,182L146,123Z" fill="rgb(240,81,129)" stroke="rgb(240,81,129)" stroke-width="1.51"/><path d="M1264,227L1344,151L1264,105Z" fill="rgb(235,61,114)" stroke="rgb(235,61,114)" stroke-width="1.51"/><path d="M1344,151L1347,70L1264,105Z" fill="rgb(238,62,111)" stroke="rgb(238,62,111)" stroke-width="1.51"/><path d="M114,60L35,114L146,123Z" fill="rgb(244,82,123)" stroke="rgb(244,82,123)" stroke-width="1.51"/><path d="M147,-80L89,-68L141,-3Z" fill="rgb(246,99,144)" stroke="rgb(246,99,144)" stroke-width="1.51"/><path d="M1344,151L1382,139L1347,70Z" fill="rgb(235,62,113)" stroke="rgb(235,62,113)" stroke-width="1.51"/><path d="M1264,227L1349,174L1344,151Z" fill="rgb(235,61,114)" stroke="rgb(235,61,114)" stroke-width="1.51"/><path d="M1245,-71L1428,-110L1179,-74Z" fill="rgb(241,83,130)" stroke="rgb(241,83,130)" stroke-width="1.51"/><path d="M1306,11L1344,-83L1245,-71Z" fill="rgb(241,83,130)" stroke="rgb(241,83,130)" stroke-width="1.51"/><path d="M1368,-23L1344,-83L1306,11Z" fill="rgb(241,83,131)" stroke="rgb(241,83,131)" stroke-width="1.51"/><path d="M32,-5L49,36L141,-3Z" fill="rgb(246,98,142)" stroke="rgb(246,98,142)" stroke-width="1.51"/><path d="M1347,70L1368,-23L1306,11Z" fill="rgb(242,78,122)" stroke="rgb(242,78,122)" stroke-width="1.51"/><path d="M1400,50L1368,-23L1347,70Z" fill="rgb(242,74,118)" stroke="rgb(242,74,118)" stroke-width="1.51"/><path d="M1349,174L1382,139L1344,151Z" fill="rgb(234,61,115)" stroke="rgb(234,61,115)" stroke-width="1.51"/><path d="M49,36L35,114L114,60Z" fill="rgb(248,84,120)" stroke="rgb(248,84,120)" stroke-width="1.51"/><path d="M-49,92L-40,121L35,114Z" fill="rgb(242,84,129)" stroke="rgb(242,84,129)" stroke-width="1.51"/><path d="M89,-68L32,-5L141,-3Z" fill="rgb(246,100,145)" stroke="rgb(246,100,145)" stroke-width="1.51"/><path d="M35,114L36,208L93,182Z" fill="rgb(240,82,130)" stroke="rgb(240,82,130)" stroke-width="1.51"/><path d="M93,182L36,208L189,210Z" fill="rgb(240,80,128)" stroke="rgb(240,80,128)" stroke-width="1.51"/><path d="M189,210L9,220L394,230Z" fill="rgb(240,78,125)" stroke="rgb(240,78,125)" stroke-width="1.51"/><path d="M9,220L36,208L-40,121Z" fill="rgb(239,83,132)" stroke="rgb(239,83,132)" stroke-width="1.51"/><path d="M1382,139L1400,50L1347,70Z" fill="rgb(240,63,108)" stroke="rgb(240,63,108)" stroke-width="1.51"/><path d="M1368,-23L1419,-63L1344,-83Z" fill="rgb(240,83,131)" stroke="rgb(240,83,131)" stroke-width="1.51"/><path d="M1382,139L1451,99L1400,50Z" fill="rgb(238,62,110)" stroke="rgb(238,62,110)" stroke-width="1.51"/><path d="M1349,174L1395,187L1382,139Z" fill="rgb(234,61,115)" stroke="rgb(234,61,115)" stroke-width="1.51"/><path d="M1264,227L1395,187L1349,174Z" fill="rgb(235,61,115)" stroke="rgb(235,61,115)" stroke-width="1.51"/><path d="M32,-5L15,-13L49,36Z" fill="rgb(246,100,145)" stroke="rgb(246,100,145)" stroke-width="1.51"/><path d="M89,-68L15,-13L32,-5Z" fill="rgb(246,101,147)" stroke="rgb(246,101,147)" stroke-width="1.51"/><path d="M36,208L9,220L189,210Z" fill="rgb(240,81,129)" stroke="rgb(240,81,129)" stroke-width="1.51"/><path d="M-40,121L36,208L35,114Z" fill="rgb(239,83,132)" stroke="rgb(239,83,132)" stroke-width="1.51"/><path d="M1476,-1L1368,-23L1400,50Z" fill="rgb(240,81,128)" stroke="rgb(240,81,128)" stroke-width="1.51"/><path d="M1476,-1L1419,-63L1368,-23Z" fill="rgb(239,83,132)" stroke="rgb(239,83,132)" stroke-width="1.51"/><path d="M1395,187L1451,99L1382,139Z" fill="rgb(234,61,116)" stroke="rgb(234,61,116)" stroke-width="1.51"/><path d="M1344,-83L1428,-110L1245,-71Z" fill="rgb(241,83,131)" stroke="rgb(241,83,131)" stroke-width="1.51"/><path d="M1040,-93L1428,-110L591,-107Z" fill="rgb(245,84,126)" stroke="rgb(245,84,126)" stroke-width="1.51"/><path d="M591,-107L1428,-110L528,-108Z" fill="rgb(247,85,123)" stroke="rgb(247,85,123)" stroke-width="1.51"/><path d="M1419,-63L1428,-110L1344,-83Z" fill="rgb(240,83,132)" stroke="rgb(240,83,132)" stroke-width="1.51"/><path d="M1514,-93L1428,-110L1419,-63Z" fill="rgb(239,83,132)" stroke="rgb(239,83,132)" stroke-width="1.51"/><path d="M-49,92L35,114L49,36Z" fill="rgb(246,84,124)" stroke="rgb(246,84,124)" stroke-width="1.51"/><path d="M1451,99L1468,36L1400,50Z" fill="rgb(242,64,106)" stroke="rgb(242,64,106)" stroke-width="1.51"/><path d="M15,-13L-49,92L49,36Z" fill="rgb(247,92,132)" stroke="rgb(247,92,132)" stroke-width="1.51"/><path d="M1468,36L1476,-1L1400,50Z" fill="rgb(241,75,120)" stroke="rgb(241,75,120)" stroke-width="1.51"/><path d="M15,-13L-54,-32L-49,92Z" fill="rgb(246,98,142)" stroke="rgb(246,98,142)" stroke-width="1.51"/><path d="M-49,-80L-54,-32L15,-13Z" fill="rgb(245,102,149)" stroke="rgb(245,102,149)" stroke-width="1.51"/><path d="M89,-68L-49,-80L15,-13Z" fill="rgb(245,102,148)" stroke="rgb(245,102,148)" stroke-width="1.51"/><path d="M147,-80L-49,-80L89,-68Z" fill="rgb(246,101,146)" stroke="rgb(246,101,146)" stroke-width="1.51"/><path d="M279,-100L-49,-80L147,-80Z" fill="rgb(246,99,144)" stroke="rgb(246,99,144)" stroke-width="1.51"/><path d="M1468,36L1490,-14L1476,-1Z" fill="rgb(240,81,129)" stroke="rgb(240,81,129)" stroke-width="1.51"/><path d="M1451,99L1495,79L1468,36Z" fill="rgb(241,63,107)" stroke="rgb(241,63,107)" stroke-width="1.51"/><path d="M1513,129L1495,79L1451,99Z" fill="rgb(237,62,112)" stroke="rgb(237,62,112)" stroke-width="1.51"/><path d="M1495,79L1490,-14L1468,36Z" fill="rgb(241,73,118)" stroke="rgb(241,73,118)" stroke-width="1.51"/><path d="M1476,-1L1490,-14L1419,-63Z" fill="rgb(239,83,132)" stroke="rgb(239,83,132)" stroke-width="1.51"/><path d="M1514,233L1488,211L1395,187Z" fill="rgb(233,61,116)" stroke="rgb(233,61,116)" stroke-width="1.51"/><path d="M1395,187L1488,211L1451,99Z" fill="rgb(233,61,116)" stroke="rgb(233,61,116)" stroke-width="1.51"/><path d="M-49,92L-74,124L-40,121Z" fill="rgb(242,83,130)" stroke="rgb(242,83,130)" stroke-width="1.51"/><path d="M-40,121L-100,209L9,220Z" fill="rgb(239,83,132)" stroke="rgb(239,83,132)" stroke-width="1.51"/><path d="M-108,88L-74,124L-49,92Z" fill="rgb(243,84,128)" stroke="rgb(243,84,128)" stroke-width="1.51"/><path d="M-108,88L-49,92L-54,-32Z" fill="rgb(248,90,127)" stroke="rgb(248,90,127)" stroke-width="1.51"/><path d="M1488,211L1513,129L1451,99Z" fill="rgb(233,61,116)" stroke="rgb(233,61,116)" stroke-width="1.51"/><path d="M1495,79L1513,129L1490,-14Z" fill="rgb(242,64,105)" stroke="rgb(242,64,105)" stroke-width="1.51"/><path d="M1488,211L1514,233L1513,129Z" fill="rgb(233,61,116)" stroke="rgb(233,61,116)" stroke-width="1.51"/><path d="M1264,227L1514,233L1395,187Z" fill="rgb(234,61,116)" stroke="rgb(234,61,116)" stroke-width="1.51"/><path d="M827,231L1514,233L1264,227Z" fill="rgb(236,62,113)" stroke="rgb(236,62,113)" stroke-width="1.51"/><path d="M394,230L1514,233L827,231Z" fill="rgb(240,63,108)" stroke="rgb(240,63,108)" stroke-width="1.51"/><path d="M-114,-54L-108,88L-54,-32Z" fill="rgb(245,102,148)" stroke="rgb(245,102,148)" stroke-width="1.51"/><path d="M-74,124L-100,209L-40,121Z" fill="rgb(239,83,132)" stroke="rgb(239,83,132)" stroke-width="1.51"/><path d="M-108,88L-100,209L-74,124Z" fill="rgb(239,83,132)" stroke="rgb(239,83,132)" stroke-width="1.51"/><path d="M1514,233L1514,-93L1513,129Z" fill="rgb(239,63,110)" stroke="rgb(239,63,110)" stroke-width="1.51"/><path d="M1513,129L1514,-93L1490,-14Z" fill="rgb(240,81,129)" stroke="rgb(240,81,129)" stroke-width="1.51"/><path d="M1490,-14L1514,-93L1419,-63Z" fill="rgb(239,83,132)" stroke="rgb(239,83,132)" stroke-width="1.51"/><path d="M-49,-80L-114,-54L-54,-32Z" fill="rgb(245,102,149)" stroke="rgb(245,102,149)" stroke-width="1.51"/></svg>